<svg width="58" height="58" viewBox="0 0 58 58" fill="none" xmlns="http://www.w3.org/2000/svg">
<path d="M21.7021 17.0526C22.5269 16.5488 23.604 16.809 24.1078 17.6338L29.5812 26.5944L38.5418 21.121C39.3666 20.6172 40.4436 20.8774 40.9474 21.7022C41.4512 22.527 41.191 23.604 40.3662 24.1078L31.4057 29.5812L36.8791 38.5418C37.3829 39.3666 37.1227 40.4437 36.2979 40.9475C35.4731 41.4513 34.396 41.1911 33.8922 40.3663L28.4188 31.4057L19.4582 36.8791C18.6334 37.3829 17.5564 37.1227 17.0526 36.2979C16.5488 35.4731 16.809 34.3961 17.6338 33.8922L26.5943 28.4188L21.1209 19.4583C20.6171 18.6335 20.8773 17.5564 21.7021 17.0526Z" fill="#E7E7E7"/>
</svg>
