<svg width="266" height="27" viewBox="0 0 266 27" fill="none" xmlns="http://www.w3.org/2000/svg">
<g filter="url(#filter0_i_801_98)">
<mask id="path-2-outside-1_801_98" maskUnits="userSpaceOnUse" x="1.5" y="1" width="268" height="27" fill="black">
<rect fill="white" x="1.5" y="1" width="268" height="27"/>
<path d="M12.2906 20.2C11.184 20.2 10.1573 20.06 9.21063 19.78C8.26396 19.4867 7.46396 19.0933 6.81063 18.6L7.59063 16.58C8.24396 17.0467 8.95729 17.4067 9.73063 17.66C10.5173 17.9133 11.3706 18.04 12.2906 18.04C13.344 18.04 14.1106 17.8667 14.5906 17.52C15.0706 17.16 15.3106 16.7 15.3106 16.14C15.3106 15.6733 15.1373 15.3067 14.7906 15.04C14.4573 14.7733 13.8773 14.5533 13.0506 14.38L10.8506 13.92C8.34396 13.3867 7.09063 12.1 7.09063 10.06C7.09063 9.18 7.32396 8.41333 7.79063 7.76C8.25729 7.10667 8.90396 6.6 9.73063 6.24C10.5573 5.88 11.5106 5.7 12.5906 5.7C13.5506 5.7 14.4506 5.84667 15.2906 6.14C16.1306 6.42 16.8306 6.82 17.3906 7.34L16.6106 9.26C15.504 8.32667 14.1573 7.86 12.5706 7.86C11.6506 7.86 10.9306 8.05333 10.4106 8.44C9.89063 8.82667 9.63063 9.33333 9.63063 9.96C9.63063 10.44 9.79063 10.8267 10.1106 11.12C10.4306 11.4 10.9773 11.62 11.7506 11.78L13.9306 12.24C15.2506 12.52 16.2306 12.96 16.8706 13.56C17.524 14.16 17.8506 14.96 17.8506 15.96C17.8506 16.8 17.624 17.54 17.1706 18.18C16.7173 18.82 16.0706 19.32 15.2306 19.68C14.404 20.0267 13.424 20.2 12.2906 20.2ZM24.6278 20.2C23.5211 20.2 22.5678 19.9933 21.7678 19.58C20.9678 19.1667 20.3478 18.58 19.9078 17.82C19.4811 17.06 19.2678 16.16 19.2678 15.12C19.2678 14.1067 19.4745 13.22 19.8878 12.46C20.3145 11.7 20.8945 11.1067 21.6278 10.68C22.3745 10.24 23.2211 10.02 24.1678 10.02C25.5545 10.02 26.6478 10.46 27.4478 11.34C28.2611 12.22 28.6678 13.42 28.6678 14.94V15.68H21.6678C21.8545 17.4267 22.8545 18.3 24.6678 18.3C25.2145 18.3 25.7611 18.22 26.3078 18.06C26.8545 17.8867 27.3545 17.62 27.8078 17.26L28.5078 18.94C28.0411 19.3267 27.4545 19.6333 26.7478 19.86C26.0411 20.0867 25.3345 20.2 24.6278 20.2ZM24.2678 11.72C23.5345 11.72 22.9411 11.9467 22.4878 12.4C22.0345 12.8533 21.7611 13.4667 21.6678 14.24H26.5878C26.5345 13.4267 26.3078 12.8067 25.9078 12.38C25.5211 11.94 24.9745 11.72 24.2678 11.72ZM33.8677 20.2C33.161 20.2 32.5277 20.0667 31.9677 19.8C31.421 19.52 30.9877 19.1467 30.6677 18.68C30.361 18.2133 30.2077 17.6867 30.2077 17.1C30.2077 16.38 30.3943 15.8133 30.7677 15.4C31.141 14.9733 31.7477 14.6667 32.5877 14.48C33.4277 14.2933 34.5543 14.2 35.9677 14.2H36.6677V13.78C36.6677 13.1133 36.521 12.6333 36.2277 12.34C35.9343 12.0467 35.441 11.9 34.7477 11.9C34.201 11.9 33.641 11.9867 33.0677 12.16C32.4943 12.32 31.9143 12.5733 31.3277 12.92L30.6077 11.22C30.9543 10.98 31.361 10.7733 31.8277 10.6C32.3077 10.4133 32.8077 10.2733 33.3277 10.18C33.861 10.0733 34.361 10.02 34.8277 10.02C36.2543 10.02 37.3143 10.3533 38.0077 11.02C38.701 11.6733 39.0477 12.6933 39.0477 14.08V20H36.7077V18.44C36.481 18.9867 36.121 19.42 35.6277 19.74C35.1343 20.0467 34.5477 20.2 33.8677 20.2ZM34.3877 18.48C35.041 18.48 35.581 18.2533 36.0077 17.8C36.4477 17.3467 36.6677 16.7733 36.6677 16.08V15.64H35.9877C34.7343 15.64 33.861 15.74 33.3677 15.94C32.8877 16.1267 32.6477 16.4733 32.6477 16.98C32.6477 17.42 32.801 17.78 33.1077 18.06C33.4143 18.34 33.841 18.48 34.3877 18.48ZM41.5852 20V10.22H44.0252V11.94C44.5052 10.78 45.5318 10.14 47.1052 10.02L47.8652 9.96L48.0252 12.08L46.5852 12.22C44.9452 12.38 44.1252 13.22 44.1252 14.74V20H41.5852ZM53.7809 20.2C52.7543 20.2 51.8609 19.9933 51.1009 19.58C50.3409 19.1533 49.7543 18.5533 49.3409 17.78C48.9276 17.0067 48.7209 16.1 48.7209 15.06C48.7209 14.02 48.9276 13.1267 49.3409 12.38C49.7543 11.62 50.3409 11.04 51.1009 10.64C51.8609 10.2267 52.7543 10.02 53.7809 10.02C54.4076 10.02 55.0276 10.12 55.6409 10.32C56.2543 10.52 56.7609 10.8 57.1609 11.16L56.4209 12.9C56.0743 12.5933 55.6809 12.36 55.2409 12.2C54.8143 12.04 54.4009 11.96 54.0009 11.96C53.1343 11.96 52.4609 12.2333 51.9809 12.78C51.5143 13.3133 51.2809 14.08 51.2809 15.08C51.2809 16.0667 51.5143 16.8467 51.9809 17.42C52.4609 17.98 53.1343 18.26 54.0009 18.26C54.3876 18.26 54.8009 18.18 55.2409 18.02C55.6809 17.86 56.0743 17.62 56.4209 17.3L57.1609 19.06C56.7609 19.4067 56.2476 19.6867 55.6209 19.9C55.0076 20.1 54.3943 20.2 53.7809 20.2ZM58.6945 20V5.9H61.1945V11.64C61.5279 11.1067 61.9745 10.7067 62.5345 10.44C63.0945 10.16 63.7145 10.02 64.3945 10.02C66.7012 10.02 67.8545 11.36 67.8545 14.04V20H65.3545V14.16C65.3545 13.4 65.2079 12.8467 64.9145 12.5C64.6345 12.1533 64.1945 11.98 63.5945 11.98C62.8612 11.98 62.2745 12.2133 61.8345 12.68C61.4079 13.1333 61.1945 13.74 61.1945 14.5V20H58.6945ZM79.3844 20V13.52L73.9644 5.9H76.9444L80.7044 11.24L84.4844 5.9H87.3444L81.9444 13.54V20H79.3844ZM90.9475 20.2C89.9342 20.2 89.0542 19.9933 88.3075 19.58C87.5608 19.1667 86.9808 18.58 86.5675 17.82C86.1542 17.0467 85.9475 16.14 85.9475 15.1C85.9475 14.06 86.1542 13.16 86.5675 12.4C86.9808 11.64 87.5608 11.0533 88.3075 10.64C89.0542 10.2267 89.9342 10.02 90.9475 10.02C91.9608 10.02 92.8408 10.2267 93.5875 10.64C94.3342 11.0533 94.9142 11.64 95.3275 12.4C95.7408 13.16 95.9475 14.06 95.9475 15.1C95.9475 16.14 95.7408 17.0467 95.3275 17.82C94.9142 18.58 94.3342 19.1667 93.5875 19.58C92.8408 19.9933 91.9608 20.2 90.9475 20.2ZM90.9475 18.3C91.6942 18.3 92.2942 18.0333 92.7475 17.5C93.2008 16.9533 93.4275 16.1533 93.4275 15.1C93.4275 14.0333 93.2008 13.24 92.7475 12.72C92.2942 12.1867 91.6942 11.92 90.9475 11.92C90.2008 11.92 89.6008 12.1867 89.1475 12.72C88.6942 13.24 88.4675 14.0333 88.4675 15.1C88.4675 16.1533 88.6942 16.9533 89.1475 17.5C89.6008 18.0333 90.2008 18.3 90.9475 18.3ZM101.551 20.2C99.1509 20.2 97.9509 18.8533 97.9509 16.16V10.22H100.451V16.2C100.451 16.8933 100.591 17.4067 100.871 17.74C101.151 18.0733 101.598 18.24 102.211 18.24C102.878 18.24 103.424 18.0133 103.851 17.56C104.278 17.0933 104.491 16.48 104.491 15.72V10.22H106.991V20H104.551V18.54C103.898 19.6467 102.898 20.2 101.551 20.2ZM109.593 20V10.22H112.033V11.94C112.513 10.78 113.54 10.14 115.113 10.02L115.873 9.96L116.033 12.08L114.593 12.22C112.953 12.38 112.133 13.22 112.133 14.74V20H109.593ZM123.056 20V5.9H132.276V7.94H125.616V11.92H131.856V13.96H125.616V20H123.056ZM136.875 20.2C136.169 20.2 135.535 20.0667 134.975 19.8C134.429 19.52 133.995 19.1467 133.675 18.68C133.369 18.2133 133.215 17.6867 133.215 17.1C133.215 16.38 133.402 15.8133 133.775 15.4C134.149 14.9733 134.755 14.6667 135.595 14.48C136.435 14.2933 137.562 14.2 138.975 14.2H139.675V13.78C139.675 13.1133 139.529 12.6333 139.235 12.34C138.942 12.0467 138.449 11.9 137.755 11.9C137.209 11.9 136.649 11.9867 136.075 12.16C135.502 12.32 134.922 12.5733 134.335 12.92L133.615 11.22C133.962 10.98 134.369 10.7733 134.835 10.6C135.315 10.4133 135.815 10.2733 136.335 10.18C136.869 10.0733 137.369 10.02 137.835 10.02C139.262 10.02 140.322 10.3533 141.015 11.02C141.709 11.6733 142.055 12.6933 142.055 14.08V20H139.715V18.44C139.489 18.9867 139.129 19.42 138.635 19.74C138.142 20.0467 137.555 20.2 136.875 20.2ZM137.395 18.48C138.049 18.48 138.589 18.2533 139.015 17.8C139.455 17.3467 139.675 16.7733 139.675 16.08V15.64H138.995C137.742 15.64 136.869 15.74 136.375 15.94C135.895 16.1267 135.655 16.4733 135.655 16.98C135.655 17.42 135.809 17.78 136.115 18.06C136.422 18.34 136.849 18.48 137.395 18.48ZM147.375 20L143.135 10.22H145.795L148.515 17.06L151.335 10.22H153.835L149.535 20H147.375ZM159.307 20.2C158.294 20.2 157.414 19.9933 156.667 19.58C155.92 19.1667 155.34 18.58 154.927 17.82C154.514 17.0467 154.307 16.14 154.307 15.1C154.307 14.06 154.514 13.16 154.927 12.4C155.34 11.64 155.92 11.0533 156.667 10.64C157.414 10.2267 158.294 10.02 159.307 10.02C160.32 10.02 161.2 10.2267 161.947 10.64C162.694 11.0533 163.274 11.64 163.687 12.4C164.1 13.16 164.307 14.06 164.307 15.1C164.307 16.14 164.1 17.0467 163.687 17.82C163.274 18.58 162.694 19.1667 161.947 19.58C161.2 19.9933 160.32 20.2 159.307 20.2ZM159.307 18.3C160.054 18.3 160.654 18.0333 161.107 17.5C161.56 16.9533 161.787 16.1533 161.787 15.1C161.787 14.0333 161.56 13.24 161.107 12.72C160.654 12.1867 160.054 11.92 159.307 11.92C158.56 11.92 157.96 12.1867 157.507 12.72C157.054 13.24 156.827 14.0333 156.827 15.1C156.827 16.1533 157.054 16.9533 157.507 17.5C157.96 18.0333 158.56 18.3 159.307 18.3ZM166.37 20V10.22H168.81V11.94C169.29 10.78 170.317 10.14 171.89 10.02L172.65 9.96L172.81 12.08L171.37 12.22C169.73 12.38 168.91 13.22 168.91 14.74V20H166.37ZM174.042 8.12V5.68H176.842V8.12H174.042ZM174.202 20V10.22H176.702V20H174.202ZM183.78 20.2C181.193 20.2 179.9 18.92 179.9 16.36V12.1H178.02V10.22H179.9V7.3H182.4V10.22H185.36V12.1H182.4V16.22C182.4 16.86 182.54 17.34 182.82 17.66C183.1 17.98 183.553 18.14 184.18 18.14C184.367 18.14 184.56 18.12 184.76 18.08C184.96 18.0267 185.167 17.9733 185.38 17.92L185.76 19.76C185.52 19.8933 185.213 20 184.84 20.08C184.48 20.16 184.127 20.2 183.78 20.2ZM191.698 20.2C190.591 20.2 189.638 19.9933 188.838 19.58C188.038 19.1667 187.418 18.58 186.978 17.82C186.551 17.06 186.338 16.16 186.338 15.12C186.338 14.1067 186.545 13.22 186.958 12.46C187.385 11.7 187.965 11.1067 188.698 10.68C189.445 10.24 190.291 10.02 191.238 10.02C192.625 10.02 193.718 10.46 194.518 11.34C195.331 12.22 195.738 13.42 195.738 14.94V15.68H188.738C188.925 17.4267 189.925 18.3 191.738 18.3C192.285 18.3 192.831 18.22 193.378 18.06C193.925 17.8867 194.425 17.62 194.878 17.26L195.578 18.94C195.111 19.3267 194.525 19.6333 193.818 19.86C193.111 20.0867 192.405 20.2 191.698 20.2ZM191.338 11.72C190.605 11.72 190.011 11.9467 189.558 12.4C189.105 12.8533 188.831 13.4667 188.738 14.24H193.658C193.605 13.4267 193.378 12.8067 192.978 12.38C192.591 11.94 192.045 11.72 191.338 11.72ZM206.749 20V8.04H201.909V5.9H214.149V8.04H209.309V20H206.749ZM213.968 20V10.22H216.408V11.94C216.888 10.78 217.915 10.14 219.488 10.02L220.248 9.96L220.408 12.08L218.968 12.22C217.328 12.38 216.508 13.22 216.508 14.74V20H213.968ZM226.464 20.2C225.357 20.2 224.404 19.9933 223.604 19.58C222.804 19.1667 222.184 18.58 221.744 17.82C221.317 17.06 221.104 16.16 221.104 15.12C221.104 14.1067 221.31 13.22 221.724 12.46C222.15 11.7 222.73 11.1067 223.464 10.68C224.21 10.24 225.057 10.02 226.004 10.02C227.39 10.02 228.484 10.46 229.284 11.34C230.097 12.22 230.504 13.42 230.504 14.94V15.68H223.504C223.69 17.4267 224.69 18.3 226.504 18.3C227.05 18.3 227.597 18.22 228.144 18.06C228.69 17.8867 229.19 17.62 229.644 17.26L230.344 18.94C229.877 19.3267 229.29 19.6333 228.584 19.86C227.877 20.0867 227.17 20.2 226.464 20.2ZM226.104 11.72C225.37 11.72 224.777 11.9467 224.324 12.4C223.87 12.8533 223.597 13.4667 223.504 14.24H228.424C228.37 13.4267 228.144 12.8067 227.744 12.38C227.357 11.94 226.81 11.72 226.104 11.72ZM232.484 20V10.22H234.924V11.74C235.257 11.18 235.704 10.7533 236.264 10.46C236.837 10.1667 237.477 10.02 238.184 10.02C240.49 10.02 241.644 11.36 241.644 14.04V20H239.144V14.16C239.144 13.4 238.997 12.8467 238.704 12.5C238.424 12.1533 237.984 11.98 237.384 11.98C236.65 11.98 236.064 12.2133 235.624 12.68C235.197 13.1333 234.984 13.74 234.984 14.5V20H232.484ZM247.943 20.2C247.089 20.2 246.336 19.9933 245.683 19.58C245.043 19.1667 244.543 18.58 244.183 17.82C243.823 17.0467 243.643 16.14 243.643 15.1C243.643 14.0467 243.823 13.1467 244.183 12.4C244.543 11.64 245.043 11.0533 245.683 10.64C246.336 10.2267 247.089 10.02 247.943 10.02C248.636 10.02 249.263 10.1733 249.823 10.48C250.383 10.7867 250.803 11.1933 251.083 11.7V5.9H253.583V20H251.143V18.38C250.876 18.94 250.456 19.3867 249.883 19.72C249.309 20.04 248.663 20.2 247.943 20.2ZM248.643 18.3C249.389 18.3 249.989 18.0333 250.443 17.5C250.896 16.9533 251.123 16.1533 251.123 15.1C251.123 14.0333 250.896 13.24 250.443 12.72C249.989 12.1867 249.389 11.92 248.643 11.92C247.896 11.92 247.296 12.1867 246.843 12.72C246.389 13.24 246.163 14.0333 246.163 15.1C246.163 16.1533 246.389 16.9533 246.843 17.5C247.296 18.0333 247.896 18.3 248.643 18.3ZM259.755 20.2C258.928 20.2 258.155 20.1 257.435 19.9C256.715 19.7 256.115 19.4133 255.635 19.04L256.275 17.4C256.768 17.7333 257.322 17.9933 257.935 18.18C258.548 18.3533 259.162 18.44 259.775 18.44C260.415 18.44 260.888 18.3333 261.195 18.12C261.515 17.8933 261.675 17.6 261.675 17.24C261.675 16.68 261.262 16.32 260.435 16.16L258.435 15.78C256.742 15.46 255.895 14.58 255.895 13.14C255.895 12.5 256.068 11.9467 256.415 11.48C256.775 11.0133 257.268 10.6533 257.895 10.4C258.522 10.1467 259.242 10.02 260.055 10.02C260.748 10.02 261.415 10.12 262.055 10.32C262.695 10.5067 263.242 10.7933 263.695 11.18L263.015 12.82C262.628 12.5 262.162 12.2467 261.615 12.06C261.082 11.8733 260.568 11.78 260.075 11.78C259.422 11.78 258.935 11.8933 258.615 12.12C258.308 12.3467 258.155 12.6467 258.155 13.02C258.155 13.6067 258.535 13.9667 259.295 14.1L261.295 14.48C262.162 14.64 262.815 14.9333 263.255 15.36C263.708 15.7867 263.935 16.36 263.935 17.08C263.935 18.0533 263.555 18.82 262.795 19.38C262.035 19.9267 261.022 20.2 259.755 20.2Z"/>
</mask>
<path d="M12.2906 20.2C11.184 20.2 10.1573 20.06 9.21063 19.78C8.26396 19.4867 7.46396 19.0933 6.81063 18.6L7.59063 16.58C8.24396 17.0467 8.95729 17.4067 9.73063 17.66C10.5173 17.9133 11.3706 18.04 12.2906 18.04C13.344 18.04 14.1106 17.8667 14.5906 17.52C15.0706 17.16 15.3106 16.7 15.3106 16.14C15.3106 15.6733 15.1373 15.3067 14.7906 15.04C14.4573 14.7733 13.8773 14.5533 13.0506 14.38L10.8506 13.92C8.34396 13.3867 7.09063 12.1 7.09063 10.06C7.09063 9.18 7.32396 8.41333 7.79063 7.76C8.25729 7.10667 8.90396 6.6 9.73063 6.24C10.5573 5.88 11.5106 5.7 12.5906 5.7C13.5506 5.7 14.4506 5.84667 15.2906 6.14C16.1306 6.42 16.8306 6.82 17.3906 7.34L16.6106 9.26C15.504 8.32667 14.1573 7.86 12.5706 7.86C11.6506 7.86 10.9306 8.05333 10.4106 8.44C9.89063 8.82667 9.63063 9.33333 9.63063 9.96C9.63063 10.44 9.79063 10.8267 10.1106 11.12C10.4306 11.4 10.9773 11.62 11.7506 11.78L13.9306 12.24C15.2506 12.52 16.2306 12.96 16.8706 13.56C17.524 14.16 17.8506 14.96 17.8506 15.96C17.8506 16.8 17.624 17.54 17.1706 18.18C16.7173 18.82 16.0706 19.32 15.2306 19.68C14.404 20.0267 13.424 20.2 12.2906 20.2ZM24.6278 20.2C23.5211 20.2 22.5678 19.9933 21.7678 19.58C20.9678 19.1667 20.3478 18.58 19.9078 17.82C19.4811 17.06 19.2678 16.16 19.2678 15.12C19.2678 14.1067 19.4745 13.22 19.8878 12.46C20.3145 11.7 20.8945 11.1067 21.6278 10.68C22.3745 10.24 23.2211 10.02 24.1678 10.02C25.5545 10.02 26.6478 10.46 27.4478 11.34C28.2611 12.22 28.6678 13.42 28.6678 14.94V15.68H21.6678C21.8545 17.4267 22.8545 18.3 24.6678 18.3C25.2145 18.3 25.7611 18.22 26.3078 18.06C26.8545 17.8867 27.3545 17.62 27.8078 17.26L28.5078 18.94C28.0411 19.3267 27.4545 19.6333 26.7478 19.86C26.0411 20.0867 25.3345 20.2 24.6278 20.2ZM24.2678 11.72C23.5345 11.72 22.9411 11.9467 22.4878 12.4C22.0345 12.8533 21.7611 13.4667 21.6678 14.24H26.5878C26.5345 13.4267 26.3078 12.8067 25.9078 12.38C25.5211 11.94 24.9745 11.72 24.2678 11.72ZM33.8677 20.2C33.161 20.2 32.5277 20.0667 31.9677 19.8C31.421 19.52 30.9877 19.1467 30.6677 18.68C30.361 18.2133 30.2077 17.6867 30.2077 17.1C30.2077 16.38 30.3943 15.8133 30.7677 15.4C31.141 14.9733 31.7477 14.6667 32.5877 14.48C33.4277 14.2933 34.5543 14.2 35.9677 14.2H36.6677V13.78C36.6677 13.1133 36.521 12.6333 36.2277 12.34C35.9343 12.0467 35.441 11.9 34.7477 11.9C34.201 11.9 33.641 11.9867 33.0677 12.16C32.4943 12.32 31.9143 12.5733 31.3277 12.92L30.6077 11.22C30.9543 10.98 31.361 10.7733 31.8277 10.6C32.3077 10.4133 32.8077 10.2733 33.3277 10.18C33.861 10.0733 34.361 10.02 34.8277 10.02C36.2543 10.02 37.3143 10.3533 38.0077 11.02C38.701 11.6733 39.0477 12.6933 39.0477 14.08V20H36.7077V18.44C36.481 18.9867 36.121 19.42 35.6277 19.74C35.1343 20.0467 34.5477 20.2 33.8677 20.2ZM34.3877 18.48C35.041 18.48 35.581 18.2533 36.0077 17.8C36.4477 17.3467 36.6677 16.7733 36.6677 16.08V15.64H35.9877C34.7343 15.64 33.861 15.74 33.3677 15.94C32.8877 16.1267 32.6477 16.4733 32.6477 16.98C32.6477 17.42 32.801 17.78 33.1077 18.06C33.4143 18.34 33.841 18.48 34.3877 18.48ZM41.5852 20V10.22H44.0252V11.94C44.5052 10.78 45.5318 10.14 47.1052 10.02L47.8652 9.96L48.0252 12.08L46.5852 12.22C44.9452 12.38 44.1252 13.22 44.1252 14.74V20H41.5852ZM53.7809 20.2C52.7543 20.2 51.8609 19.9933 51.1009 19.58C50.3409 19.1533 49.7543 18.5533 49.3409 17.78C48.9276 17.0067 48.7209 16.1 48.7209 15.06C48.7209 14.02 48.9276 13.1267 49.3409 12.38C49.7543 11.62 50.3409 11.04 51.1009 10.64C51.8609 10.2267 52.7543 10.02 53.7809 10.02C54.4076 10.02 55.0276 10.12 55.6409 10.32C56.2543 10.52 56.7609 10.8 57.1609 11.16L56.4209 12.9C56.0743 12.5933 55.6809 12.36 55.2409 12.2C54.8143 12.04 54.4009 11.96 54.0009 11.96C53.1343 11.96 52.4609 12.2333 51.9809 12.78C51.5143 13.3133 51.2809 14.08 51.2809 15.08C51.2809 16.0667 51.5143 16.8467 51.9809 17.42C52.4609 17.98 53.1343 18.26 54.0009 18.26C54.3876 18.26 54.8009 18.18 55.2409 18.02C55.6809 17.86 56.0743 17.62 56.4209 17.3L57.1609 19.06C56.7609 19.4067 56.2476 19.6867 55.6209 19.9C55.0076 20.1 54.3943 20.2 53.7809 20.2ZM58.6945 20V5.9H61.1945V11.64C61.5279 11.1067 61.9745 10.7067 62.5345 10.44C63.0945 10.16 63.7145 10.02 64.3945 10.02C66.7012 10.02 67.8545 11.36 67.8545 14.04V20H65.3545V14.16C65.3545 13.4 65.2079 12.8467 64.9145 12.5C64.6345 12.1533 64.1945 11.98 63.5945 11.98C62.8612 11.98 62.2745 12.2133 61.8345 12.68C61.4079 13.1333 61.1945 13.74 61.1945 14.5V20H58.6945ZM79.3844 20V13.52L73.9644 5.9H76.9444L80.7044 11.24L84.4844 5.9H87.3444L81.9444 13.54V20H79.3844ZM90.9475 20.2C89.9342 20.2 89.0542 19.9933 88.3075 19.58C87.5608 19.1667 86.9808 18.58 86.5675 17.82C86.1542 17.0467 85.9475 16.14 85.9475 15.1C85.9475 14.06 86.1542 13.16 86.5675 12.4C86.9808 11.64 87.5608 11.0533 88.3075 10.64C89.0542 10.2267 89.9342 10.02 90.9475 10.02C91.9608 10.02 92.8408 10.2267 93.5875 10.64C94.3342 11.0533 94.9142 11.64 95.3275 12.4C95.7408 13.16 95.9475 14.06 95.9475 15.1C95.9475 16.14 95.7408 17.0467 95.3275 17.82C94.9142 18.58 94.3342 19.1667 93.5875 19.58C92.8408 19.9933 91.9608 20.2 90.9475 20.2ZM90.9475 18.3C91.6942 18.3 92.2942 18.0333 92.7475 17.5C93.2008 16.9533 93.4275 16.1533 93.4275 15.1C93.4275 14.0333 93.2008 13.24 92.7475 12.72C92.2942 12.1867 91.6942 11.92 90.9475 11.92C90.2008 11.92 89.6008 12.1867 89.1475 12.72C88.6942 13.24 88.4675 14.0333 88.4675 15.1C88.4675 16.1533 88.6942 16.9533 89.1475 17.5C89.6008 18.0333 90.2008 18.3 90.9475 18.3ZM101.551 20.2C99.1509 20.2 97.9509 18.8533 97.9509 16.16V10.22H100.451V16.2C100.451 16.8933 100.591 17.4067 100.871 17.74C101.151 18.0733 101.598 18.24 102.211 18.24C102.878 18.24 103.424 18.0133 103.851 17.56C104.278 17.0933 104.491 16.48 104.491 15.72V10.22H106.991V20H104.551V18.54C103.898 19.6467 102.898 20.2 101.551 20.2ZM109.593 20V10.22H112.033V11.94C112.513 10.78 113.54 10.14 115.113 10.02L115.873 9.96L116.033 12.08L114.593 12.22C112.953 12.38 112.133 13.22 112.133 14.74V20H109.593ZM123.056 20V5.9H132.276V7.94H125.616V11.92H131.856V13.96H125.616V20H123.056ZM136.875 20.2C136.169 20.2 135.535 20.0667 134.975 19.8C134.429 19.52 133.995 19.1467 133.675 18.68C133.369 18.2133 133.215 17.6867 133.215 17.1C133.215 16.38 133.402 15.8133 133.775 15.4C134.149 14.9733 134.755 14.6667 135.595 14.48C136.435 14.2933 137.562 14.2 138.975 14.2H139.675V13.78C139.675 13.1133 139.529 12.6333 139.235 12.34C138.942 12.0467 138.449 11.9 137.755 11.9C137.209 11.9 136.649 11.9867 136.075 12.16C135.502 12.32 134.922 12.5733 134.335 12.92L133.615 11.22C133.962 10.98 134.369 10.7733 134.835 10.6C135.315 10.4133 135.815 10.2733 136.335 10.18C136.869 10.0733 137.369 10.02 137.835 10.02C139.262 10.02 140.322 10.3533 141.015 11.02C141.709 11.6733 142.055 12.6933 142.055 14.08V20H139.715V18.44C139.489 18.9867 139.129 19.42 138.635 19.74C138.142 20.0467 137.555 20.2 136.875 20.2ZM137.395 18.48C138.049 18.48 138.589 18.2533 139.015 17.8C139.455 17.3467 139.675 16.7733 139.675 16.08V15.64H138.995C137.742 15.64 136.869 15.74 136.375 15.94C135.895 16.1267 135.655 16.4733 135.655 16.98C135.655 17.42 135.809 17.78 136.115 18.06C136.422 18.34 136.849 18.48 137.395 18.48ZM147.375 20L143.135 10.22H145.795L148.515 17.06L151.335 10.22H153.835L149.535 20H147.375ZM159.307 20.2C158.294 20.2 157.414 19.9933 156.667 19.58C155.92 19.1667 155.34 18.58 154.927 17.82C154.514 17.0467 154.307 16.14 154.307 15.1C154.307 14.06 154.514 13.16 154.927 12.4C155.34 11.64 155.92 11.0533 156.667 10.64C157.414 10.2267 158.294 10.02 159.307 10.02C160.32 10.02 161.2 10.2267 161.947 10.64C162.694 11.0533 163.274 11.64 163.687 12.4C164.1 13.16 164.307 14.06 164.307 15.1C164.307 16.14 164.1 17.0467 163.687 17.82C163.274 18.58 162.694 19.1667 161.947 19.58C161.2 19.9933 160.32 20.2 159.307 20.2ZM159.307 18.3C160.054 18.3 160.654 18.0333 161.107 17.5C161.56 16.9533 161.787 16.1533 161.787 15.1C161.787 14.0333 161.56 13.24 161.107 12.72C160.654 12.1867 160.054 11.92 159.307 11.92C158.56 11.92 157.96 12.1867 157.507 12.72C157.054 13.24 156.827 14.0333 156.827 15.1C156.827 16.1533 157.054 16.9533 157.507 17.5C157.96 18.0333 158.56 18.3 159.307 18.3ZM166.37 20V10.22H168.81V11.94C169.29 10.78 170.317 10.14 171.89 10.02L172.65 9.96L172.81 12.08L171.37 12.22C169.73 12.38 168.91 13.22 168.91 14.74V20H166.37ZM174.042 8.12V5.68H176.842V8.12H174.042ZM174.202 20V10.22H176.702V20H174.202ZM183.78 20.2C181.193 20.2 179.9 18.92 179.9 16.36V12.1H178.02V10.22H179.9V7.3H182.4V10.22H185.36V12.1H182.4V16.22C182.4 16.86 182.54 17.34 182.82 17.66C183.1 17.98 183.553 18.14 184.18 18.14C184.367 18.14 184.56 18.12 184.76 18.08C184.96 18.0267 185.167 17.9733 185.38 17.92L185.76 19.76C185.52 19.8933 185.213 20 184.84 20.08C184.48 20.16 184.127 20.2 183.78 20.2ZM191.698 20.2C190.591 20.2 189.638 19.9933 188.838 19.58C188.038 19.1667 187.418 18.58 186.978 17.82C186.551 17.06 186.338 16.16 186.338 15.12C186.338 14.1067 186.545 13.22 186.958 12.46C187.385 11.7 187.965 11.1067 188.698 10.68C189.445 10.24 190.291 10.02 191.238 10.02C192.625 10.02 193.718 10.46 194.518 11.34C195.331 12.22 195.738 13.42 195.738 14.94V15.68H188.738C188.925 17.4267 189.925 18.3 191.738 18.3C192.285 18.3 192.831 18.22 193.378 18.06C193.925 17.8867 194.425 17.62 194.878 17.26L195.578 18.94C195.111 19.3267 194.525 19.6333 193.818 19.86C193.111 20.0867 192.405 20.2 191.698 20.2ZM191.338 11.72C190.605 11.72 190.011 11.9467 189.558 12.4C189.105 12.8533 188.831 13.4667 188.738 14.24H193.658C193.605 13.4267 193.378 12.8067 192.978 12.38C192.591 11.94 192.045 11.72 191.338 11.72ZM206.749 20V8.04H201.909V5.9H214.149V8.04H209.309V20H206.749ZM213.968 20V10.22H216.408V11.94C216.888 10.78 217.915 10.14 219.488 10.02L220.248 9.96L220.408 12.08L218.968 12.22C217.328 12.38 216.508 13.22 216.508 14.74V20H213.968ZM226.464 20.2C225.357 20.2 224.404 19.9933 223.604 19.58C222.804 19.1667 222.184 18.58 221.744 17.82C221.317 17.06 221.104 16.16 221.104 15.12C221.104 14.1067 221.31 13.22 221.724 12.46C222.15 11.7 222.73 11.1067 223.464 10.68C224.21 10.24 225.057 10.02 226.004 10.02C227.39 10.02 228.484 10.46 229.284 11.34C230.097 12.22 230.504 13.42 230.504 14.94V15.68H223.504C223.69 17.4267 224.69 18.3 226.504 18.3C227.05 18.3 227.597 18.22 228.144 18.06C228.69 17.8867 229.19 17.62 229.644 17.26L230.344 18.94C229.877 19.3267 229.29 19.6333 228.584 19.86C227.877 20.0867 227.17 20.2 226.464 20.2ZM226.104 11.72C225.37 11.72 224.777 11.9467 224.324 12.4C223.87 12.8533 223.597 13.4667 223.504 14.24H228.424C228.37 13.4267 228.144 12.8067 227.744 12.38C227.357 11.94 226.81 11.72 226.104 11.72ZM232.484 20V10.22H234.924V11.74C235.257 11.18 235.704 10.7533 236.264 10.46C236.837 10.1667 237.477 10.02 238.184 10.02C240.49 10.02 241.644 11.36 241.644 14.04V20H239.144V14.16C239.144 13.4 238.997 12.8467 238.704 12.5C238.424 12.1533 237.984 11.98 237.384 11.98C236.65 11.98 236.064 12.2133 235.624 12.68C235.197 13.1333 234.984 13.74 234.984 14.5V20H232.484ZM247.943 20.2C247.089 20.2 246.336 19.9933 245.683 19.58C245.043 19.1667 244.543 18.58 244.183 17.82C243.823 17.0467 243.643 16.14 243.643 15.1C243.643 14.0467 243.823 13.1467 244.183 12.4C244.543 11.64 245.043 11.0533 245.683 10.64C246.336 10.2267 247.089 10.02 247.943 10.02C248.636 10.02 249.263 10.1733 249.823 10.48C250.383 10.7867 250.803 11.1933 251.083 11.7V5.9H253.583V20H251.143V18.38C250.876 18.94 250.456 19.3867 249.883 19.72C249.309 20.04 248.663 20.2 247.943 20.2ZM248.643 18.3C249.389 18.3 249.989 18.0333 250.443 17.5C250.896 16.9533 251.123 16.1533 251.123 15.1C251.123 14.0333 250.896 13.24 250.443 12.72C249.989 12.1867 249.389 11.92 248.643 11.92C247.896 11.92 247.296 12.1867 246.843 12.72C246.389 13.24 246.163 14.0333 246.163 15.1C246.163 16.1533 246.389 16.9533 246.843 17.5C247.296 18.0333 247.896 18.3 248.643 18.3ZM259.755 20.2C258.928 20.2 258.155 20.1 257.435 19.9C256.715 19.7 256.115 19.4133 255.635 19.04L256.275 17.4C256.768 17.7333 257.322 17.9933 257.935 18.18C258.548 18.3533 259.162 18.44 259.775 18.44C260.415 18.44 260.888 18.3333 261.195 18.12C261.515 17.8933 261.675 17.6 261.675 17.24C261.675 16.68 261.262 16.32 260.435 16.16L258.435 15.78C256.742 15.46 255.895 14.58 255.895 13.14C255.895 12.5 256.068 11.9467 256.415 11.48C256.775 11.0133 257.268 10.6533 257.895 10.4C258.522 10.1467 259.242 10.02 260.055 10.02C260.748 10.02 261.415 10.12 262.055 10.32C262.695 10.5067 263.242 10.7933 263.695 11.18L263.015 12.82C262.628 12.5 262.162 12.2467 261.615 12.06C261.082 11.8733 260.568 11.78 260.075 11.78C259.422 11.78 258.935 11.8933 258.615 12.12C258.308 12.3467 258.155 12.6467 258.155 13.02C258.155 13.6067 258.535 13.9667 259.295 14.1L261.295 14.48C262.162 14.64 262.815 14.9333 263.255 15.36C263.708 15.7867 263.935 16.36 263.935 17.08C263.935 18.0533 263.555 18.82 262.795 19.38C262.035 19.9267 261.022 20.2 259.755 20.2Z" fill="white"/>
<path d="M9.21063 19.78L8.02672 23.6008L8.05137 23.6084L8.07611 23.6157L9.21063 19.78ZM6.81063 18.6L3.07915 17.1591L1.99226 19.9739L4.40021 21.7922L6.81063 18.6ZM7.59063 16.58L9.91558 13.3251L5.71751 10.3264L3.85915 15.1391L7.59063 16.58ZM9.73063 17.66L8.48539 21.4612L8.49494 21.4644L8.5045 21.4674L9.73063 17.66ZM14.5906 17.52L16.9326 20.7627L16.9618 20.7416L16.9906 20.72L14.5906 17.52ZM14.7906 15.04L12.2918 18.1635L12.3216 18.1873L12.3518 18.2105L14.7906 15.04ZM13.0506 14.38L13.8715 10.4651L13.8693 10.4647L13.0506 14.38ZM10.8506 13.92L10.0182 17.8324L10.032 17.8353L10.8506 13.92ZM7.79063 7.76L4.53569 5.43504L4.53569 5.43505L7.79063 7.76ZM9.73063 6.24L8.13356 2.57266L8.13356 2.57266L9.73063 6.24ZM15.2906 6.14L13.9719 9.91637L13.9987 9.92574L14.0257 9.93473L15.2906 6.14ZM17.3906 7.34L21.0965 8.84551L22.1357 6.28755L20.1124 4.40883L17.3906 7.34ZM16.6106 9.26L14.0318 12.3177L18.243 15.8694L20.3165 10.7655L16.6106 9.26ZM10.4106 8.44L12.7974 11.6498L12.7974 11.6498L10.4106 8.44ZM10.1106 11.12L7.40773 14.0686L7.44181 14.0999L7.47661 14.1303L10.1106 11.12ZM11.7506 11.78L12.5765 7.86618L12.5688 7.86455L12.561 7.86296L11.7506 11.78ZM13.9306 12.24L14.7606 8.32706L14.7565 8.32618L13.9306 12.24ZM16.8706 13.56L14.1349 16.4781L14.1499 16.4922L14.165 16.5061L16.8706 13.56ZM17.1706 18.18L13.9065 15.8679L13.9065 15.8679L17.1706 18.18ZM15.2306 19.68L16.7775 23.3688L16.7919 23.3627L16.8063 23.3566L15.2306 19.68ZM12.2906 16.2C11.5223 16.2 10.882 16.1031 10.3451 15.9443L8.07611 23.6157C9.43257 24.0169 10.8456 24.2 12.2906 24.2V16.2ZM10.3945 15.9592C9.79973 15.7749 9.43643 15.5705 9.22104 15.4078L4.40021 21.7922C5.49148 22.6162 6.72818 23.1984 8.02672 23.6008L10.3945 15.9592ZM10.5421 20.0409L11.3221 18.0209L3.85915 15.1391L3.07915 17.1591L10.5421 20.0409ZM5.26567 19.8349C6.25364 20.5406 7.33183 21.0833 8.48539 21.4612L10.9759 13.8588C10.5828 13.73 10.2343 13.5527 9.91558 13.3251L5.26567 19.8349ZM8.5045 21.4674C9.72944 21.8619 11.001 22.04 12.2906 22.04V14.04C11.7402 14.04 11.3051 13.9648 10.9568 13.8526L8.5045 21.4674ZM12.2906 22.04C13.608 22.04 15.4181 21.8565 16.9326 20.7627L12.2487 14.2773C12.4099 14.1608 12.548 14.0929 12.637 14.0558C12.682 14.037 12.7168 14.0251 12.7392 14.0181C12.7505 14.0146 12.7591 14.0122 12.7648 14.0107C12.7705 14.0092 12.7735 14.0085 12.7735 14.0085C12.7736 14.0085 12.7711 14.009 12.7657 14.01C12.7603 14.0111 12.7524 14.0125 12.7417 14.0141C12.7202 14.0175 12.6892 14.0216 12.6476 14.0255C12.5634 14.0335 12.4459 14.04 12.2906 14.04V22.04ZM16.9906 20.72C18.3942 19.6673 19.3106 18.06 19.3106 16.14H11.3106C11.3106 15.828 11.383 15.4406 11.5843 15.0547C11.7809 14.6779 12.0271 14.4426 12.1906 14.32L16.9906 20.72ZM19.3106 16.14C19.3106 14.5279 18.6344 12.9503 17.2295 11.8695L12.3518 18.2105C12.0627 17.9881 11.7697 17.6589 11.5643 17.2245C11.3629 16.7984 11.3106 16.4089 11.3106 16.14H19.3106ZM17.2894 11.9165C16.187 11.0346 14.824 10.6649 13.8715 10.4651L12.2298 18.2949C12.3633 18.3229 12.468 18.3488 12.5472 18.371C12.6272 18.3934 12.6716 18.4092 12.687 18.415C12.7036 18.4213 12.6746 18.4115 12.6134 18.3789C12.5536 18.347 12.4369 18.2795 12.2918 18.1635L17.2894 11.9165ZM13.8693 10.4647L11.6693 10.0047L10.032 17.8353L12.232 18.2953L13.8693 10.4647ZM11.6831 10.0076C11.3031 9.92673 11.0719 9.83816 10.9484 9.77835C10.8299 9.721 10.8369 9.7033 10.8959 9.76393C10.9631 9.83285 11.029 9.93292 11.0688 10.0385C11.1051 10.1348 11.0906 10.1585 11.0906 10.06H3.09063C3.09063 11.9693 3.71065 13.8527 5.16533 15.3461C6.53275 16.7499 8.30709 17.4684 10.0182 17.8324L11.6831 10.0076ZM11.0906 10.06C11.0906 10.0169 11.0935 9.99196 11.0948 9.98245C11.0961 9.97326 11.0963 9.97665 11.0923 9.98965C11.0883 10.0029 11.0817 10.0205 11.0721 10.0399C11.0626 10.0593 11.0529 10.0747 11.0456 10.085L4.53569 5.43505C3.53775 6.83217 3.09063 8.43043 3.09063 10.06H11.0906ZM11.0456 10.085C11.0518 10.0763 11.0629 10.062 11.0926 10.0386C11.1246 10.0136 11.1952 9.96504 11.3277 9.90734L8.13356 2.57266C6.72662 3.18536 5.47334 4.12234 4.53569 5.43504L11.0456 10.085ZM11.3277 9.90734C11.5611 9.80569 11.9535 9.7 12.5906 9.7V1.7C11.0678 1.7 9.55348 1.95431 8.13356 2.57266L11.3277 9.90734ZM12.5906 9.7C13.1371 9.7 13.5881 9.78233 13.9719 9.91637L16.6094 2.36363C15.3132 1.911 13.9641 1.7 12.5906 1.7V9.7ZM14.0257 9.93473C14.4094 10.0626 14.5886 10.1966 14.6688 10.2712L20.1124 4.40883C19.0727 3.44335 17.8518 2.77736 16.5555 2.34527L14.0257 9.93473ZM13.6848 5.83449L12.9048 7.75449L20.3165 10.7655L21.0965 8.84551L13.6848 5.83449ZM19.1894 6.20227C17.2903 4.60058 15.004 3.86 12.5706 3.86V11.86C13.3106 11.86 13.7176 12.0528 14.0318 12.3177L19.1894 6.20227ZM12.5706 3.86C11.1408 3.86 9.46987 4.15488 8.02381 5.23015L12.7974 11.6498C12.5967 11.7991 12.4325 11.8535 12.378 11.8682C12.3316 11.8806 12.3827 11.86 12.5706 11.86V3.86ZM8.02382 5.23015C6.52948 6.34132 5.63063 8.01871 5.63063 9.96H13.6306C13.6306 10.2169 13.5726 10.5694 13.3844 10.9362C13.1985 11.2985 12.9608 11.5284 12.7974 11.6498L8.02382 5.23015ZM5.63063 9.96C5.63063 11.4293 6.16874 12.9329 7.40773 14.0686L12.8135 8.17138C13.0677 8.40441 13.2949 8.71364 13.4467 9.08059C13.5947 9.43823 13.6306 9.75173 13.6306 9.96H5.63063ZM7.47661 14.1303C8.5939 15.1079 9.97986 15.4984 10.9402 15.697L12.561 7.86296C12.4529 7.84059 12.3738 7.82043 12.3197 7.80486C12.265 7.7891 12.2454 7.78078 12.254 7.78422C12.2617 7.78732 12.3123 7.80799 12.392 7.85401C12.4713 7.89974 12.5975 7.98092 12.7446 8.10969L7.47661 14.1303ZM10.9248 15.6938L13.1048 16.1538L14.7565 8.32618L12.5765 7.86618L10.9248 15.6938ZM13.1006 16.1529C13.5498 16.2482 13.8426 16.3506 14.0173 16.4291C14.1909 16.5071 14.2009 16.54 14.1349 16.4781L19.6064 10.6419C18.2206 9.34264 16.4411 8.68352 14.7606 8.32706L13.1006 16.1529ZM14.165 16.5061C14.0694 16.4183 13.9679 16.2825 13.9025 16.1221C13.8414 15.9727 13.8506 15.8979 13.8506 15.96H21.8506C21.8506 13.9978 21.1639 12.0719 19.5762 10.6139L14.165 16.5061ZM13.8506 15.96C13.8506 15.975 13.8501 15.9859 13.8496 15.9929C13.8492 15.9998 13.8487 16.0032 13.8487 16.0032C13.8487 16.0033 13.8491 16.0004 13.8503 15.9951C13.8514 15.9897 13.8533 15.9824 13.856 15.9735C13.8617 15.9549 13.8698 15.9341 13.8801 15.9132C13.8903 15.8924 13.9001 15.8771 13.9065 15.8679L20.4347 20.4921C21.4015 19.1272 21.8506 17.5662 21.8506 15.96H13.8506ZM13.9065 15.8679C13.9182 15.8515 13.9224 15.8524 13.8989 15.8706C13.8724 15.891 13.8002 15.9412 13.6549 16.0034L16.8063 23.3566C18.2104 22.7548 19.4889 21.8274 20.4347 20.4921L13.9065 15.8679ZM13.6837 15.9912C13.4578 16.086 13.0279 16.2 12.2906 16.2V24.2C13.82 24.2 15.3501 23.9674 16.7775 23.3688L13.6837 15.9912ZM21.7678 19.58L19.9317 23.1337L21.7678 19.58ZM19.9078 17.82L16.4199 19.7781L16.4328 19.8012L16.4461 19.8241L19.9078 17.82ZM19.8878 12.46L16.3999 10.5019L16.3867 10.5253L16.3739 10.5489L19.8878 12.46ZM21.6278 10.68L23.6394 14.1374L23.649 14.1318L23.6586 14.1262L21.6278 10.68ZM27.4478 11.34L24.4881 14.0307L24.4991 14.0429L24.5103 14.055L27.4478 11.34ZM28.6678 15.68V19.68H32.6678V15.68H28.6678ZM21.6678 15.68V11.68H17.2176L17.6905 16.1051L21.6678 15.68ZM26.3078 18.06L27.4314 21.8989L27.4742 21.8864L27.5168 21.8729L26.3078 18.06ZM27.8078 17.26L31.5001 15.7215L29.4647 10.8364L25.3203 14.1276L27.8078 17.26ZM28.5078 18.94L31.0599 22.0201L33.338 20.1325L32.2001 17.4015L28.5078 18.94ZM26.7478 19.86L25.5261 16.0511L26.7478 19.86ZM22.4878 12.4L25.3162 15.2284L25.3162 15.2284L22.4878 12.4ZM21.6678 14.24L17.6966 13.7607L17.156 18.24H21.6678V14.24ZM26.5878 14.24V18.24H30.8587L30.5792 13.9783L26.5878 14.24ZM25.9078 12.38L22.9032 15.0205L22.9456 15.0688L22.9897 15.1158L25.9078 12.38ZM24.6278 16.2C24.016 16.2 23.7208 16.0867 23.6039 16.0263L19.9317 23.1337C21.4148 23.9 23.0263 24.2 24.6278 24.2V16.2ZM23.6039 16.0263C23.4644 15.9542 23.4166 15.8972 23.3695 15.8159L16.4461 19.8241C17.279 21.2628 18.4712 22.3791 19.9317 23.1337L23.6039 16.0263ZM23.3957 15.8619C23.3642 15.8057 23.2678 15.6068 23.2678 15.12H15.2678C15.2678 16.7132 15.5981 18.3143 16.4199 19.7781L23.3957 15.8619ZM23.2678 15.12C23.2678 14.6595 23.358 14.4514 23.4017 14.3711L16.3739 10.5489C15.5909 11.9886 15.2678 13.5538 15.2678 15.12H23.2678ZM23.3757 14.4181C23.4629 14.2629 23.5406 14.1949 23.6394 14.1374L19.6162 7.22261C18.2484 8.01845 17.166 9.13712 16.3999 10.5019L23.3757 14.4181ZM23.6586 14.1262C23.7339 14.0818 23.8674 14.02 24.1678 14.02V6.02C22.5749 6.02 21.0151 6.39821 19.597 7.23385L23.6586 14.1262ZM24.1678 14.02C24.3034 14.02 24.3965 14.0308 24.454 14.041C24.5105 14.051 24.5343 14.0607 24.5345 14.0608C24.535 14.061 24.5317 14.0597 24.5256 14.0564C24.5195 14.0531 24.5124 14.0488 24.5052 14.0438C24.489 14.0325 24.4831 14.0253 24.4881 14.0307L30.4076 8.64931C28.7217 6.79482 26.4763 6.02 24.1678 6.02V14.02ZM24.5103 14.055C24.5145 14.0595 24.5407 14.0842 24.5744 14.1838C24.6129 14.2972 24.6678 14.5321 24.6678 14.94H32.6678C32.6678 12.6942 32.051 10.4272 30.3853 8.62503L24.5103 14.055ZM24.6678 14.94V15.68H32.6678V14.94H24.6678ZM28.6678 11.68H21.6678V19.68H28.6678V11.68ZM17.6905 16.1051C17.8554 17.6485 18.4499 19.3681 19.9266 20.6578C21.3847 21.9312 23.1489 22.3 24.6678 22.3V14.3C24.3733 14.3 24.7309 14.2321 25.189 14.6322C25.6657 15.0486 25.6669 15.4582 25.6452 15.2549L17.6905 16.1051ZM24.6678 22.3C25.6105 22.3 26.5352 22.1613 27.4314 21.8989L25.1842 14.2211C24.9871 14.2787 24.8185 14.3 24.6678 14.3V22.3ZM27.5168 21.8729C28.5319 21.551 29.4645 21.0523 30.2953 20.3924L25.3203 14.1276C25.2445 14.1877 25.177 14.2223 25.0988 14.2471L27.5168 21.8729ZM24.1155 18.7985L24.8155 20.4785L32.2001 17.4015L31.5001 15.7215L24.1155 18.7985ZM25.9557 15.8599C25.9594 15.8569 25.8528 15.9464 25.5261 16.0511L27.9695 23.6689C29.0562 23.3203 30.1229 22.7964 31.0599 22.0201L25.9557 15.8599ZM25.5261 16.0511C25.1944 16.1575 24.8994 16.2 24.6278 16.2V24.2C25.7696 24.2 26.8879 24.0158 27.9695 23.6689L25.5261 16.0511ZM24.2678 7.72C22.6394 7.72 20.9725 8.25849 19.6594 9.57157L25.3162 15.2284C25.1489 15.3958 24.9343 15.5372 24.7003 15.6266C24.4765 15.7121 24.3147 15.72 24.2678 15.72V7.72ZM19.6594 9.57157C18.4457 10.7852 17.8735 12.2954 17.6966 13.7607L25.639 14.7193C25.6453 14.6673 25.646 14.717 25.5964 14.8282C25.5434 14.9473 25.452 15.0927 25.3162 15.2284L19.6594 9.57157ZM21.6678 18.24H26.5878V10.24H21.6678V18.24ZM30.5792 13.9783C30.4889 12.6005 30.0684 10.9695 28.826 9.64424L22.9897 15.1158C22.5473 14.6439 22.5801 14.2529 22.5964 14.5017L30.5792 13.9783ZM28.9125 9.73954C27.6106 8.25808 25.8658 7.72 24.2678 7.72V15.72C24.209 15.72 24.0002 15.7108 23.7145 15.5958C23.4109 15.4736 23.1255 15.2735 22.9032 15.0205L28.9125 9.73954ZM31.9677 19.8L30.1442 23.3602L30.1957 23.3866L30.2479 23.4114L31.9677 19.8ZM30.6677 18.68L27.3248 20.8767L27.3465 20.9096L27.3687 20.9421L30.6677 18.68ZM30.7677 15.4L33.7361 18.0811L33.7572 18.0577L33.778 18.034L30.7677 15.4ZM32.5877 14.48L31.7199 10.5753L31.7199 10.5753L32.5877 14.48ZM36.6677 14.2V18.2H40.6677V14.2H36.6677ZM36.2277 12.34L33.3992 15.1684L33.3992 15.1684L36.2277 12.34ZM33.0677 12.16L34.1429 16.0128L34.1842 16.0013L34.2252 15.9888L33.0677 12.16ZM31.3277 12.92L27.6444 14.48L29.4271 18.6892L33.3626 16.3637L31.3277 12.92ZM30.6077 11.22L28.3308 7.93123L25.6553 9.78351L26.9244 12.78L30.6077 11.22ZM31.8277 10.6L33.2204 14.3497L33.249 14.3391L33.2774 14.328L31.8277 10.6ZM33.3277 10.18L34.0343 14.1171L34.0733 14.1101L34.1121 14.1023L33.3277 10.18ZM38.0077 11.02L35.2352 13.9033L35.2498 13.9173L35.2645 13.9312L38.0077 11.02ZM39.0477 20V24H43.0477V20H39.0477ZM36.7077 20H32.7077V24H36.7077V20ZM36.7077 18.44H40.7077L33.0127 16.9079L36.7077 18.44ZM35.6277 19.74L37.7394 23.1371L37.7721 23.1168L37.8044 23.0958L35.6277 19.74ZM36.0077 17.8L33.1373 15.0141L33.1159 15.0362L33.0949 15.0585L36.0077 17.8ZM36.6677 15.64H40.6677V11.64H36.6677V15.64ZM33.3677 15.94L34.8174 19.668L34.844 19.6577L34.8705 19.647L33.3677 15.94ZM33.1077 18.06L30.4106 21.0139L30.4106 21.0139L33.1077 18.06ZM33.8677 16.2C33.7662 16.2 33.7089 16.1905 33.6867 16.1858C33.6661 16.1815 33.6697 16.1801 33.6874 16.1886L30.2479 23.4114C31.4154 23.9674 32.649 24.2 33.8677 24.2V16.2ZM33.7912 16.2398C33.7797 16.2339 33.8027 16.2444 33.8435 16.2796C33.8855 16.3158 33.9292 16.3634 33.9666 16.4179L27.3687 20.9421C28.0966 22.0036 29.0573 22.8035 30.1442 23.3602L33.7912 16.2398ZM34.0105 16.4833C34.0718 16.5766 34.1266 16.691 34.1632 16.8169C34.1994 16.9412 34.2077 17.0412 34.2077 17.1H26.2077C26.2077 18.4257 26.5671 19.7237 27.3248 20.8767L34.0105 16.4833ZM34.2077 17.1C34.2077 17.0802 34.2108 17.1925 34.1468 17.3865C34.0784 17.5941 33.9489 17.8455 33.7361 18.0811L27.7992 12.7189C26.586 14.0621 26.2077 15.6876 26.2077 17.1H34.2077ZM33.778 18.034C33.5664 18.2758 33.373 18.3866 33.3072 18.4198C33.247 18.4502 33.2787 18.424 33.4554 18.3847L31.7199 10.5753C30.4549 10.8564 28.9144 11.4437 27.7573 12.766L33.778 18.034ZM33.4554 18.3847C33.8877 18.2887 34.6856 18.2 35.9677 18.2V10.2C34.423 10.2 32.9676 10.298 31.7199 10.5753L33.4554 18.3847ZM35.9677 18.2H36.6677V10.2H35.9677V18.2ZM40.6677 14.2V13.78H32.6677V14.2H40.6677ZM40.6677 13.78C40.6677 12.6711 40.4459 10.9014 39.0561 9.51157L33.3992 15.1684C32.995 14.7642 32.8105 14.3449 32.7323 14.0889C32.659 13.8491 32.6677 13.7212 32.6677 13.78H40.6677ZM39.0561 9.51157C37.6429 8.09842 35.8293 7.9 34.7477 7.9V15.9C34.8329 15.9 34.724 15.9114 34.4978 15.8441C34.2579 15.7728 33.8232 15.5924 33.3992 15.1684L39.0561 9.51157ZM34.7477 7.9C33.7733 7.9 32.8232 8.05511 31.9101 8.33115L34.2252 15.9888C34.4588 15.9182 34.6287 15.9 34.7477 15.9V7.9ZM31.9925 8.30721C31.0383 8.5735 30.1376 8.97708 29.2927 9.47629L33.3626 16.3637C33.6911 16.1696 33.9504 16.0665 34.1429 16.0128L31.9925 8.30721ZM35.0109 11.36L34.2909 9.66003L26.9244 12.78L27.6444 14.48L35.0109 11.36ZM32.8845 14.5088C32.9128 14.4892 33.0119 14.4271 33.2204 14.3497L30.4349 6.8503C29.7101 7.11952 28.9959 7.4708 28.3308 7.93123L32.8845 14.5088ZM33.2774 14.328C33.5109 14.2372 33.7616 14.166 34.0343 14.1171L32.621 6.24291C31.8537 6.38064 31.1044 6.58945 30.3779 6.87198L33.2774 14.328ZM34.1121 14.1023C34.4284 14.0391 34.6634 14.02 34.8277 14.02V6.02C34.0586 6.02 33.2935 6.10761 32.5432 6.25768L34.1121 14.1023ZM34.8277 14.02C35.2433 14.02 35.4431 14.0702 35.4927 14.0858C35.5251 14.096 35.3981 14.0599 35.2352 13.9033L40.7801 8.13667C39.0492 6.47237 36.7951 6.02 34.8277 6.02V14.02ZM35.2645 13.9312C35.1776 13.8493 35.1117 13.7647 35.0654 13.6902C35.0202 13.6175 35.0028 13.5692 35.0004 13.5622C34.9985 13.5565 35.0109 13.5914 35.0235 13.679C35.0362 13.7669 35.0477 13.8982 35.0477 14.08H43.0477C43.0477 12.098 42.5526 9.80661 40.7509 8.10884L35.2645 13.9312ZM35.0477 14.08V20H43.0477V14.08H35.0477ZM39.0477 16H36.7077V24H39.0477V16ZM40.7077 20V18.44H32.7077V20H40.7077ZM33.0127 16.9079C33.0451 16.8297 33.102 16.7259 33.1909 16.6189C33.2799 16.5117 33.3738 16.4341 33.4509 16.3842L37.8044 23.0958C38.9813 22.3325 39.8681 21.2611 40.4026 19.9721L33.0127 16.9079ZM33.5159 16.3429C33.6249 16.2751 33.7283 16.2354 33.8062 16.215C33.8803 16.1956 33.907 16.2 33.8677 16.2V24.2C35.1647 24.2 36.5106 23.901 37.7394 23.1371L33.5159 16.3429ZM34.3877 22.48C36.0826 22.48 37.6969 21.8415 38.9205 20.5415L33.0949 15.0585C33.2406 14.9037 33.4563 14.7385 33.7345 14.6217C34.0084 14.5068 34.2442 14.48 34.3877 14.48V22.48ZM38.878 20.5859C40.1162 19.3101 40.6677 17.7026 40.6677 16.08H32.6677C32.6677 15.9995 32.6815 15.8228 32.7682 15.597C32.8575 15.3643 32.9919 15.1639 33.1373 15.0141L38.878 20.5859ZM40.6677 16.08V15.64H32.6677V16.08H40.6677ZM36.6677 11.64H35.9877V19.64H36.6677V11.64ZM35.9877 11.64C34.7317 11.64 33.1511 11.7116 31.8648 12.233L34.8705 19.647C34.7316 19.7033 34.6518 19.719 34.6665 19.7157C34.6758 19.7137 34.7321 19.7023 34.8477 19.689C35.0848 19.6619 35.4548 19.64 35.9877 19.64V11.64ZM31.9179 12.212C31.1003 12.5299 30.2054 13.1004 29.5389 14.0632C28.869 15.0308 28.6477 16.0802 28.6477 16.98H36.6477C36.6477 17.3732 36.5463 17.9958 36.1164 18.6168C35.6899 19.2329 35.155 19.5368 34.8174 19.668L31.9179 12.212ZM28.6477 16.98C28.6477 18.4685 29.2198 19.9267 30.4106 21.0139L35.8047 15.1061C36.0482 15.3283 36.2812 15.6333 36.4428 16.0126C36.6019 16.3863 36.6477 16.7283 36.6477 16.98H28.6477ZM30.4106 21.0139C31.6625 22.157 33.1663 22.48 34.3877 22.48V14.48C34.5157 14.48 35.1661 14.523 35.8047 15.1061L30.4106 21.0139ZM41.5852 20H37.5852V24H41.5852V20ZM41.5852 10.22V6.22H37.5852V10.22H41.5852ZM44.0252 10.22H48.0252V6.22H44.0252V10.22ZM44.0252 11.94H40.0252L47.7212 13.4694L44.0252 11.94ZM47.1052 10.02L47.4094 14.0084L47.42 14.0076L47.1052 10.02ZM47.8652 9.96L51.8538 9.65897L51.5517 5.6565L47.5503 5.97241L47.8652 9.96ZM48.0252 12.08L48.4122 16.0612L52.3084 15.6824L52.0138 11.779L48.0252 12.08ZM46.5852 12.22L46.1981 8.23877L46.1968 8.2389L46.5852 12.22ZM44.1252 20V24H48.1252V20H44.1252ZM45.5852 20V10.22H37.5852V20H45.5852ZM41.5852 14.22H44.0252V6.22H41.5852V14.22ZM40.0252 10.22V11.94H48.0252V10.22H40.0252ZM47.7212 13.4694C47.6965 13.5292 47.6454 13.6269 47.5549 13.7349C47.4636 13.8441 47.3622 13.9278 47.2712 13.9845C47.0963 14.0935 47.0766 14.0338 47.4094 14.0084L46.801 6.03158C44.1843 6.23116 41.5433 7.4762 40.3291 10.4106L47.7212 13.4694ZM47.42 14.0076L48.18 13.9476L47.5503 5.97241L46.7903 6.03241L47.42 14.0076ZM43.8765 10.261L44.0365 12.381L52.0138 11.779L51.8538 9.65897L43.8765 10.261ZM47.6381 8.09877L46.1981 8.23877L46.9722 16.2012L48.4122 16.0612L47.6381 8.09877ZM46.1968 8.2389C44.8129 8.37391 43.1692 8.85307 41.8779 10.1759C40.5418 11.5445 40.1252 13.256 40.1252 14.74H48.1252C48.1252 14.704 48.1185 15.2355 47.6025 15.7641C47.1312 16.2469 46.7174 16.2261 46.9736 16.2011L46.1968 8.2389ZM40.1252 14.74V20H48.1252V14.74H40.1252ZM44.1252 16H41.5852V24H44.1252V16ZM51.1009 19.58L49.1428 23.0679L49.1662 23.0811L49.1898 23.0939L51.1009 19.58ZM49.3409 17.78L52.8687 15.8945L52.8687 15.8945L49.3409 17.78ZM49.3409 12.38L52.8405 14.3173L52.8477 14.3042L52.8549 14.2911L49.3409 12.38ZM51.1009 10.64L52.9639 14.1797L52.9881 14.167L53.012 14.1539L51.1009 10.64ZM55.6409 10.32L56.881 6.51708L56.881 6.51708L55.6409 10.32ZM57.1609 11.16L60.8419 12.7255L61.9596 10.0973L59.8368 8.18682L57.1609 11.16ZM56.4209 12.9L53.7706 15.896L57.929 19.5746L60.1019 14.4655L56.4209 12.9ZM55.2409 12.2L53.8364 15.9453L53.8552 15.9523L53.874 15.9592L55.2409 12.2ZM51.9809 12.78L48.9752 10.1408L48.9706 10.146L51.9809 12.78ZM51.9809 17.42L48.8787 19.9451L48.9108 19.9845L48.9439 20.0232L51.9809 17.42ZM56.4209 17.3L60.1083 15.7496L57.898 10.4929L53.7078 14.3608L56.4209 17.3ZM57.1609 19.06L59.7807 22.0828L61.9724 20.1833L60.8483 17.5096L57.1609 19.06ZM55.6209 19.9L56.861 23.7029L56.8856 23.6949L56.91 23.6866L55.6209 19.9ZM53.7809 16.2C53.2973 16.2 53.0851 16.1058 53.012 16.0661L49.1898 23.0939C50.6368 23.8809 52.2113 24.2 53.7809 24.2V16.2ZM53.0591 16.0921C52.9687 16.0413 52.9247 15.9993 52.8687 15.8945L45.8132 19.6655C46.5839 21.1074 47.7132 22.2654 49.1428 23.0679L53.0591 16.0921ZM52.8687 15.8945C52.8183 15.8002 52.7209 15.5644 52.7209 15.06H44.7209C44.7209 16.6356 45.0369 18.2131 45.8132 19.6655L52.8687 15.8945ZM52.7209 15.06C52.7209 14.5507 52.8199 14.3544 52.8405 14.3173L45.8414 10.4427C45.0353 11.8989 44.7209 13.4893 44.7209 15.06H52.7209ZM52.8549 14.2911C52.8837 14.2381 52.9014 14.2213 52.9032 14.2195C52.9047 14.218 52.9185 14.2036 52.9639 14.1797L49.238 7.10033C47.7735 7.87112 46.6148 9.02036 45.827 10.4689L52.8549 14.2911ZM53.012 14.1539C53.0851 14.1142 53.2973 14.02 53.7809 14.02V6.02C52.2113 6.02 50.6368 6.33911 49.1899 7.12606L53.012 14.1539ZM53.7809 14.02C53.9741 14.02 54.176 14.0496 54.4009 14.1229L56.881 6.51708C55.8792 6.1904 54.8411 6.02 53.7809 6.02V14.02ZM54.4009 14.1229C54.4939 14.1532 54.5378 14.1763 54.5462 14.181C54.5532 14.1848 54.5276 14.1714 54.4851 14.1332L59.8368 8.18682C58.9473 7.38629 57.9219 6.8565 56.881 6.51708L54.4009 14.1229ZM53.48 9.59454L52.74 11.3345L60.1019 14.4655L60.8419 12.7255L53.48 9.59454ZM59.0712 9.90401C58.3441 9.26075 57.5142 8.77039 56.6079 8.44083L53.874 15.9592C53.8655 15.9561 53.8477 15.9486 53.8251 15.9352C53.8025 15.9218 53.7837 15.9076 53.7706 15.896L59.0712 9.90401ZM56.6454 8.45468C55.8315 8.14945 54.9425 7.96 54.0009 7.96V15.96C53.8594 15.96 53.7971 15.9305 53.8364 15.9453L56.6454 8.45468ZM54.0009 7.96C52.2245 7.96 50.3605 8.56302 48.9752 10.1408L54.9867 15.4192C54.8166 15.613 54.5911 15.7736 54.3505 15.8713C54.1267 15.9621 53.9861 15.96 54.0009 15.96V7.96ZM48.9706 10.146C47.6465 11.6593 47.2809 13.5064 47.2809 15.08H55.2809C55.2809 14.8813 55.3052 14.8455 55.2826 14.9196C55.2559 15.0074 55.177 15.2017 54.9912 15.414L48.9706 10.146ZM47.2809 15.08C47.2809 16.6778 47.6625 18.4509 48.8787 19.9451L55.0832 14.8949C55.1452 14.971 55.1927 15.0462 55.2276 15.1136C55.262 15.1802 55.2799 15.2312 55.2881 15.2586C55.3034 15.3095 55.2809 15.2643 55.2809 15.08H47.2809ZM48.9439 20.0232C50.3195 21.628 52.1924 22.26 54.0009 22.26V14.26C53.9972 14.26 54.1491 14.2599 54.3818 14.3566C54.6309 14.4602 54.8548 14.6265 55.018 14.8168L48.9439 20.0232ZM54.0009 22.26C54.9404 22.26 55.8193 22.0659 56.6079 21.7792L53.874 14.2608C53.7825 14.2941 53.8348 14.26 54.0009 14.26V22.26ZM56.6079 21.7792C57.5505 21.4364 58.4006 20.9163 59.1341 20.2392L53.7078 14.3608C53.7236 14.3463 53.7488 14.326 53.7825 14.3054C53.8162 14.2848 53.8483 14.2702 53.874 14.2608L56.6079 21.7792ZM52.7336 18.8504L53.4736 20.6104L60.8483 17.5096L60.1083 15.7496L52.7336 18.8504ZM54.5412 16.0372C54.6157 15.9727 54.588 16.0262 54.3319 16.1134L56.91 23.6866C57.9072 23.3471 58.9062 22.8406 59.7807 22.0828L54.5412 16.0372ZM54.3809 16.0971C54.1471 16.1733 53.9517 16.2 53.7809 16.2V24.2C54.8368 24.2 55.8681 24.0267 56.861 23.7029L54.3809 16.0971ZM58.6945 20H54.6945V24H58.6945V20ZM58.6945 5.9V1.9H54.6945V5.9H58.6945ZM61.1945 5.9H65.1945V1.9H61.1945V5.9ZM61.1945 11.64H57.1945V25.5872L64.5865 13.76L61.1945 11.64ZM62.5345 10.44L64.2543 14.0514L64.289 14.0349L64.3234 14.0177L62.5345 10.44ZM67.8545 20V24H71.8545V20H67.8545ZM65.3545 20H61.3545V24H65.3545V20ZM64.9145 12.5L61.8028 15.0133L61.8315 15.0489L61.861 15.0838L64.9145 12.5ZM61.8345 12.68L58.9242 9.93595L58.9217 9.93854L61.8345 12.68ZM61.1945 20V24H65.1945V20H61.1945ZM62.6945 20V5.9H54.6945V20H62.6945ZM58.6945 9.9H61.1945V1.9H58.6945V9.9ZM57.1945 5.9V11.64H65.1945V5.9H57.1945ZM64.5865 13.76C64.5635 13.7969 64.5185 13.8566 64.448 13.9198C64.3772 13.9832 64.3071 14.0263 64.2543 14.0514L60.8148 6.82856C59.5565 7.42773 58.5338 8.34994 57.8025 9.52001L64.5865 13.76ZM64.3234 14.0177C64.3182 14.0203 64.3125 14.0227 64.3071 14.0247C64.3017 14.0266 64.2992 14.0271 64.3006 14.0268C64.3021 14.0264 64.3304 14.02 64.3945 14.02V6.02C63.148 6.02 61.9079 6.2812 60.7457 6.86229L64.3234 14.0177ZM64.3945 14.02C64.5931 14.02 64.5889 14.0498 64.4637 14.0013C64.3986 13.9761 64.3115 13.9336 64.2155 13.8667C64.1187 13.7992 64.0312 13.7197 63.9578 13.6344C63.807 13.4591 63.7797 13.3365 63.7934 13.3843C63.8105 13.4439 63.8545 13.6439 63.8545 14.04H71.8545C71.8545 12.2181 71.4753 10.1051 70.0212 8.41563C68.4683 6.61135 66.3341 6.02 64.3945 6.02V14.02ZM63.8545 14.04V20H71.8545V14.04H63.8545ZM67.8545 16H65.3545V24H67.8545V16ZM69.3545 20V14.16H61.3545V20H69.3545ZM69.3545 14.16C69.3545 13.0415 69.1673 11.3335 67.9681 9.91623L61.861 15.0838C61.538 14.7021 61.4183 14.3516 61.3781 14.1999C61.3393 14.0535 61.3545 14.0204 61.3545 14.16H69.3545ZM68.0263 9.98665C66.7448 8.40009 64.9566 7.98 63.5945 7.98V15.98C63.522 15.98 63.2622 15.971 62.9084 15.8316C62.5254 15.6808 62.1243 15.4115 61.8028 15.0133L68.0263 9.98665ZM63.5945 7.98C61.9327 7.98 60.2311 8.54985 58.9242 9.93595L64.7449 15.4241C64.5708 15.6087 64.3409 15.7691 64.0828 15.8718C63.8362 15.9699 63.6535 15.98 63.5945 15.98V7.98ZM58.9217 9.93854C57.6495 11.2903 57.1945 12.9583 57.1945 14.5H65.1945C65.1945 14.4918 65.1957 14.6094 65.128 14.8019C65.0558 15.0072 64.9291 15.2283 64.7473 15.4215L58.9217 9.93854ZM57.1945 14.5V20H65.1945V14.5H57.1945ZM61.1945 16H58.6945V24H61.1945V16ZM79.3844 20H75.3844V24H79.3844V20ZM79.3844 13.52H83.3844V12.2425L82.6439 11.2015L79.3844 13.52ZM73.9644 5.9V1.9H66.2106L70.7048 8.21847L73.9644 5.9ZM76.9444 5.9L80.215 3.59712L79.02 1.9H76.9444V5.9ZM80.7044 11.24L77.4338 13.5429L80.6957 18.1755L83.9692 13.5511L80.7044 11.24ZM84.4844 5.9V1.9H82.4151L81.2196 3.58895L84.4844 5.9ZM87.3444 5.9L90.6108 8.20875L95.0699 1.9H87.3444V5.9ZM81.9444 13.54L78.6779 11.2313L77.9444 12.2691V13.54H81.9444ZM81.9444 20V24H85.9444V20H81.9444ZM83.3844 20V13.52H75.3844V20H83.3844ZM82.6439 11.2015L77.2239 3.58153L70.7048 8.21847L76.1248 15.8385L82.6439 11.2015ZM73.9644 9.9H76.9444V1.9H73.9644V9.9ZM73.6738 8.20288L77.4338 13.5429L83.975 8.93712L80.215 3.59712L73.6738 8.20288ZM83.9692 13.5511L87.7492 8.21105L81.2196 3.58895L77.4396 8.92895L83.9692 13.5511ZM84.4844 9.9H87.3444V1.9H84.4844V9.9ZM84.0779 3.59125L78.6779 11.2313L85.2108 15.8487L90.6108 8.20875L84.0779 3.59125ZM77.9444 13.54V20H85.9444V13.54H77.9444ZM81.9444 16H79.3844V24H81.9444V16ZM88.3075 19.58L86.3702 23.0796L86.3702 23.0796L88.3075 19.58ZM86.5675 17.82L83.0398 19.7055L83.0466 19.7183L83.0536 19.7311L86.5675 17.82ZM86.5675 12.4L83.0536 10.4889L83.0536 10.4889L86.5675 12.4ZM88.3075 10.64L86.3702 7.14043L86.3702 7.14043L88.3075 10.64ZM93.5875 10.64L95.5248 7.14043L95.5248 7.14043L93.5875 10.64ZM95.3275 12.4L98.8414 10.4889L98.8414 10.4889L95.3275 12.4ZM95.3275 17.82L98.8414 19.7311L98.8484 19.7183L98.8552 19.7055L95.3275 17.82ZM93.5875 19.58L91.6502 16.0804L91.6502 16.0804L93.5875 19.58ZM92.7475 17.5L95.7953 20.0906L95.811 20.0721L95.8265 20.0533L92.7475 17.5ZM92.7475 12.72L89.6997 15.3106L89.716 15.3297L89.7324 15.3485L92.7475 12.72ZM89.1475 12.72L92.1626 15.3485L92.179 15.3297L92.1953 15.3106L89.1475 12.72ZM89.1475 17.5L86.0685 20.0533L86.084 20.0721L86.0997 20.0906L89.1475 17.5ZM90.9475 16.2C90.4848 16.2 90.2965 16.109 90.2448 16.0804L86.3702 23.0796C87.8119 23.8776 89.3835 24.2 90.9475 24.2V16.2ZM90.2448 16.0804C90.1737 16.0411 90.1363 16.0099 90.0814 15.9089L83.0536 19.7311C83.8253 21.1501 84.948 22.2922 86.3702 23.0796L90.2448 16.0804ZM90.0952 15.9345C90.0448 15.8402 89.9475 15.6044 89.9475 15.1H81.9475C81.9475 16.6756 82.2635 18.2531 83.0398 19.7055L90.0952 15.9345ZM89.9475 15.1C89.9475 14.5933 90.0456 14.3769 90.0814 14.3111L83.0536 10.4889C82.2627 11.9431 81.9475 13.5267 81.9475 15.1H89.9475ZM90.0814 14.3111C90.1363 14.2101 90.1737 14.1789 90.2448 14.1396L86.3702 7.14043C84.948 7.92775 83.8253 9.06988 83.0536 10.4889L90.0814 14.3111ZM90.2448 14.1396C90.2965 14.111 90.4848 14.02 90.9475 14.02V6.02C89.3835 6.02 87.8119 6.34238 86.3702 7.14043L90.2448 14.1396ZM90.9475 14.02C91.4102 14.02 91.5985 14.111 91.6502 14.1396L95.5248 7.14043C94.0831 6.34238 92.5115 6.02 90.9475 6.02V14.02ZM91.6502 14.1396C91.7213 14.1789 91.7587 14.2101 91.8136 14.3111L98.8414 10.4889C98.0697 9.06988 96.947 7.92775 95.5248 7.14043L91.6502 14.1396ZM91.8136 14.3111C91.8494 14.3769 91.9475 14.5933 91.9475 15.1H99.9475C99.9475 13.5267 99.6323 11.9431 98.8414 10.4889L91.8136 14.3111ZM91.9475 15.1C91.9475 15.6044 91.8502 15.8402 91.7998 15.9345L98.8552 19.7055C99.6315 18.2531 99.9475 16.6756 99.9475 15.1H91.9475ZM91.8136 15.9089C91.7587 16.0099 91.7213 16.0411 91.6502 16.0804L95.5248 23.0796C96.947 22.2922 98.0697 21.1501 98.8414 19.7311L91.8136 15.9089ZM91.6502 16.0804C91.5985 16.109 91.4102 16.2 90.9475 16.2V24.2C92.5115 24.2 94.0831 23.8776 95.5248 23.0796L91.6502 16.0804ZM90.9475 22.3C92.7785 22.3 94.526 21.5838 95.7953 20.0906L89.6997 14.9094C89.8354 14.7498 90.0489 14.571 90.3329 14.4448C90.6101 14.3216 90.8378 14.3 90.9475 14.3V22.3ZM95.8265 20.0533C97.1038 18.5131 97.4275 16.6503 97.4275 15.1H89.4275C89.4275 15.3512 89.3992 15.4341 89.409 15.3996C89.4218 15.3543 89.484 15.169 89.6685 14.9467L95.8265 20.0533ZM97.4275 15.1C97.4275 13.5721 97.1187 11.647 95.7626 10.0915L89.7324 15.3485C89.5049 15.0876 89.4282 14.8627 89.4114 14.8039C89.3979 14.7565 89.4275 14.8359 89.4275 15.1H97.4275ZM95.7953 10.1294C94.526 8.63621 92.7785 7.92 90.9475 7.92V15.92C90.8378 15.92 90.6101 15.8984 90.3329 15.7752C90.0489 15.649 89.8354 15.4702 89.6997 15.3106L95.7953 10.1294ZM90.9475 7.92C89.1165 7.92 87.369 8.63621 86.0997 10.1294L92.1953 15.3106C92.0596 15.4702 91.8461 15.649 91.5621 15.7752C91.2849 15.8984 91.0572 15.92 90.9475 15.92V7.92ZM86.1324 10.0915C84.7763 11.647 84.4675 13.5721 84.4675 15.1H92.4675C92.4675 14.8359 92.4971 14.7565 92.4836 14.8039C92.4668 14.8627 92.3901 15.0876 92.1626 15.3485L86.1324 10.0915ZM84.4675 15.1C84.4675 16.6503 84.7912 18.5131 86.0685 20.0533L92.2265 14.9467C92.411 15.169 92.4732 15.3543 92.486 15.3996C92.4958 15.4341 92.4675 15.3512 92.4675 15.1H84.4675ZM86.0997 20.0906C87.369 21.5838 89.1165 22.3 90.9475 22.3V14.3C91.0572 14.3 91.2849 14.3216 91.5621 14.4448C91.8461 14.571 92.0596 14.7498 92.1953 14.9094L86.0997 20.0906ZM97.9509 10.22V6.22H93.9509V10.22H97.9509ZM100.451 10.22H104.451V6.22H100.451V10.22ZM100.871 17.74L97.8081 20.3128L97.8081 20.3128L100.871 17.74ZM103.851 17.56L106.764 20.3015L106.784 20.2804L106.803 20.2591L103.851 17.56ZM104.491 10.22V6.22H100.491V10.22H104.491ZM106.991 10.22H110.991V6.22H106.991V10.22ZM106.991 20V24H110.991V20H106.991ZM104.551 20H100.551V24H104.551V20ZM104.551 18.54H108.551V3.89635L101.106 16.5065L104.551 18.54ZM101.551 16.2C101.315 16.2 101.283 16.1658 101.377 16.201C101.427 16.2198 101.503 16.2546 101.591 16.3139C101.68 16.3738 101.764 16.4471 101.837 16.5289C101.989 16.699 102.021 16.8242 102.01 16.7886C101.996 16.7393 101.951 16.5492 101.951 16.16H93.9509C93.9509 18.0169 94.3546 20.1566 95.8646 21.8511C97.4528 23.6335 99.6073 24.2 101.551 24.2V16.2ZM101.951 16.16V10.22H93.9509V16.16H101.951ZM97.9509 14.22H100.451V6.22H97.9509V14.22ZM96.4509 10.22V16.2H104.451V10.22H96.4509ZM96.4509 16.2C96.4509 17.3097 96.6544 18.9393 97.8081 20.3128L103.934 15.1672C104.239 15.531 104.366 15.8723 104.415 16.0525C104.462 16.2243 104.451 16.2922 104.451 16.2H96.4509ZM97.8081 20.3128C99.1213 21.876 100.919 22.24 102.211 22.24V14.24C102.252 14.24 102.483 14.2437 102.814 14.3674C103.175 14.5019 103.588 14.7558 103.934 15.1672L97.8081 20.3128ZM102.211 22.24C103.893 22.24 105.523 21.6194 106.764 20.3015L100.938 14.8185C101.092 14.6552 101.313 14.4895 101.589 14.375C101.859 14.2631 102.085 14.24 102.211 14.24V22.24ZM106.803 20.2591C108.035 18.9118 108.491 17.2661 108.491 15.72H100.491C100.491 15.7272 100.49 15.6169 100.553 15.4359C100.62 15.2438 100.736 15.0393 100.899 14.8609L106.803 20.2591ZM108.491 15.72V10.22H100.491V15.72H108.491ZM104.491 14.22H106.991V6.22H104.491V14.22ZM102.991 10.22V20H110.991V10.22H102.991ZM106.991 16H104.551V24H106.991V16ZM108.551 20V18.54H100.551V20H108.551ZM101.106 16.5065C101.097 16.5232 101.111 16.4942 101.162 16.4435C101.214 16.3909 101.287 16.3336 101.374 16.2851C101.565 16.1797 101.668 16.2 101.551 16.2V24.2C104.23 24.2 106.581 22.9686 107.995 20.5735L101.106 16.5065ZM109.593 20H105.593V24H109.593V20ZM109.593 10.22V6.22H105.593V10.22H109.593ZM112.033 10.22H116.033V6.22H112.033V10.22ZM112.033 11.94H108.033L115.729 13.4694L112.033 11.94ZM115.113 10.02L115.417 14.0084L115.428 14.0076L115.113 10.02ZM115.873 9.96L119.862 9.65897L119.56 5.6565L115.558 5.97241L115.873 9.96ZM116.033 12.08L116.42 16.0612L120.316 15.6824L120.022 11.779L116.033 12.08ZM114.593 12.22L114.206 8.23877L114.205 8.2389L114.593 12.22ZM112.133 20V24H116.133V20H112.133ZM113.593 20V10.22H105.593V20H113.593ZM109.593 14.22H112.033V6.22H109.593V14.22ZM108.033 10.22V11.94H116.033V10.22H108.033ZM115.729 13.4694C115.704 13.5292 115.653 13.6269 115.563 13.7349C115.471 13.8441 115.37 13.9278 115.279 13.9845C115.104 14.0935 115.084 14.0338 115.417 14.0084L114.809 6.03158C112.192 6.23116 109.551 7.4762 108.337 10.4106L115.729 13.4694ZM115.428 14.0076L116.188 13.9476L115.558 5.97241L114.798 6.03241L115.428 14.0076ZM111.884 10.261L112.044 12.381L120.022 11.779L119.862 9.65897L111.884 10.261ZM115.646 8.09877L114.206 8.23877L114.98 16.2012L116.42 16.0612L115.646 8.09877ZM114.205 8.2389C112.821 8.37391 111.177 8.85307 109.886 10.1759C108.55 11.5445 108.133 13.256 108.133 14.74H116.133C116.133 14.704 116.126 15.2355 115.61 15.7641C115.139 16.2469 114.725 16.2261 114.981 16.2011L114.205 8.2389ZM108.133 14.74V20H116.133V14.74H108.133ZM112.133 16H109.593V24H112.133V16ZM123.056 20H119.056V24H123.056V20ZM123.056 5.9V1.9H119.056V5.9H123.056ZM132.276 5.9H136.276V1.9H132.276V5.9ZM132.276 7.94V11.94H136.276V7.94H132.276ZM125.616 7.94V3.94H121.616V7.94H125.616ZM125.616 11.92H121.616V15.92H125.616V11.92ZM131.856 11.92H135.856V7.92H131.856V11.92ZM131.856 13.96V17.96H135.856V13.96H131.856ZM125.616 13.96V9.96H121.616V13.96H125.616ZM125.616 20V24H129.616V20H125.616ZM127.056 20V5.9H119.056V20H127.056ZM123.056 9.9H132.276V1.9H123.056V9.9ZM128.276 5.9V7.94H136.276V5.9H128.276ZM132.276 3.94H125.616V11.94H132.276V3.94ZM121.616 7.94V11.92H129.616V7.94H121.616ZM125.616 15.92H131.856V7.92H125.616V15.92ZM127.856 11.92V13.96H135.856V11.92H127.856ZM131.856 9.96H125.616V17.96H131.856V9.96ZM121.616 13.96V20H129.616V13.96H121.616ZM125.616 16H123.056V24H125.616V16ZM134.975 19.8L133.152 23.3602L133.203 23.3866L133.256 23.4114L134.975 19.8ZM133.675 18.68L130.333 20.8767L130.354 20.9096L130.377 20.9421L133.675 18.68ZM133.775 15.4L136.744 18.0811L136.765 18.0577L136.786 18.034L133.775 15.4ZM135.595 14.48L134.728 10.5753L134.728 10.5753L135.595 14.48ZM139.675 14.2V18.2H143.675V14.2H139.675ZM139.235 12.34L136.407 15.1684L136.407 15.1684L139.235 12.34ZM136.075 12.16L137.151 16.0128L137.192 16.0013L137.233 15.9888L136.075 12.16ZM134.335 12.92L130.652 14.48L132.435 18.6892L136.37 16.3637L134.335 12.92ZM133.615 11.22L131.339 7.93123L128.663 9.78351L129.932 12.78L133.615 11.22ZM134.835 10.6L136.228 14.3497L136.257 14.3391L136.285 14.328L134.835 10.6ZM136.335 10.18L137.042 14.1171L137.081 14.1101L137.12 14.1023L136.335 10.18ZM141.015 11.02L138.243 13.9033L138.258 13.9173L138.272 13.9312L141.015 11.02ZM142.055 20V24H146.055V20H142.055ZM139.715 20H135.715V24H139.715V20ZM139.715 18.44H143.715L136.021 16.9079L139.715 18.44ZM138.635 19.74L140.747 23.1371L140.78 23.1168L140.812 23.0958L138.635 19.74ZM139.015 17.8L136.145 15.0141L136.124 15.0362L136.103 15.0585L139.015 17.8ZM139.675 15.64H143.675V11.64H139.675V15.64ZM136.375 15.94L137.825 19.668L137.852 19.6577L137.878 19.647L136.375 15.94ZM136.115 18.06L133.418 21.0139L133.418 21.0139L136.115 18.06ZM136.875 16.2C136.774 16.2 136.717 16.1905 136.695 16.1858C136.674 16.1815 136.678 16.1801 136.695 16.1886L133.256 23.4114C134.423 23.9674 135.657 24.2 136.875 24.2V16.2ZM136.799 16.2398C136.787 16.2339 136.81 16.2444 136.851 16.2796C136.893 16.3158 136.937 16.3634 136.974 16.4179L130.377 20.9421C131.104 22.0036 132.065 22.8035 133.152 23.3602L136.799 16.2398ZM137.018 16.4833C137.08 16.5766 137.134 16.691 137.171 16.8169C137.207 16.9412 137.215 17.0412 137.215 17.1H129.215C129.215 18.4257 129.575 19.7237 130.333 20.8767L137.018 16.4833ZM137.215 17.1C137.215 17.0802 137.219 17.1925 137.155 17.3865C137.086 17.5941 136.957 17.8455 136.744 18.0811L130.807 12.7189C129.594 14.0621 129.215 15.6876 129.215 17.1H137.215ZM136.786 18.034C136.574 18.2758 136.381 18.3866 136.315 18.4198C136.255 18.4502 136.287 18.424 136.463 18.3847L134.728 10.5753C133.463 10.8564 131.922 11.4437 130.765 12.766L136.786 18.034ZM136.463 18.3847C136.896 18.2887 137.693 18.2 138.975 18.2V10.2C137.431 10.2 135.975 10.298 134.728 10.5753L136.463 18.3847ZM138.975 18.2H139.675V10.2H138.975V18.2ZM143.675 14.2V13.78H135.675V14.2H143.675ZM143.675 13.78C143.675 12.6711 143.454 10.9014 142.064 9.51157L136.407 15.1684C136.003 14.7642 135.818 14.3449 135.74 14.0889C135.667 13.8491 135.675 13.7212 135.675 13.78H143.675ZM142.064 9.51157C140.651 8.09842 138.837 7.9 137.755 7.9V15.9C137.841 15.9 137.732 15.9114 137.506 15.8441C137.266 15.7728 136.831 15.5924 136.407 15.1684L142.064 9.51157ZM137.755 7.9C136.781 7.9 135.831 8.05511 134.918 8.33115L137.233 15.9888C137.467 15.9182 137.637 15.9 137.755 15.9V7.9ZM135 8.30721C134.046 8.5735 133.145 8.97708 132.301 9.47629L136.37 16.3637C136.699 16.1696 136.958 16.0665 137.151 16.0128L135 8.30721ZM138.019 11.36L137.299 9.66003L129.932 12.78L130.652 14.48L138.019 11.36ZM135.892 14.5088C135.921 14.4892 136.02 14.4271 136.228 14.3497L133.443 6.8503C132.718 7.11952 132.004 7.4708 131.339 7.93123L135.892 14.5088ZM136.285 14.328C136.519 14.2372 136.769 14.166 137.042 14.1171L135.629 6.24291C134.861 6.38064 134.112 6.58945 133.386 6.87198L136.285 14.328ZM137.12 14.1023C137.436 14.0391 137.671 14.02 137.835 14.02V6.02C137.066 6.02 136.301 6.10761 135.551 6.25768L137.12 14.1023ZM137.835 14.02C138.251 14.02 138.451 14.0702 138.501 14.0858C138.533 14.096 138.406 14.0599 138.243 13.9033L143.788 8.13667C142.057 6.47237 139.803 6.02 137.835 6.02V14.02ZM138.272 13.9312C138.185 13.8493 138.119 13.7647 138.073 13.6902C138.028 13.6175 138.011 13.5692 138.008 13.5622C138.006 13.5565 138.019 13.5914 138.031 13.679C138.044 13.7669 138.055 13.8982 138.055 14.08H146.055C146.055 12.098 145.56 9.80661 143.759 8.10884L138.272 13.9312ZM138.055 14.08V20H146.055V14.08H138.055ZM142.055 16H139.715V24H142.055V16ZM143.715 20V18.44H135.715V20H143.715ZM136.021 16.9079C136.053 16.8297 136.11 16.7259 136.199 16.6189C136.288 16.5117 136.382 16.4341 136.459 16.3842L140.812 23.0958C141.989 22.3325 142.876 21.2611 143.41 19.9721L136.021 16.9079ZM136.524 16.3429C136.633 16.2751 136.736 16.2354 136.814 16.215C136.888 16.1956 136.915 16.2 136.875 16.2V24.2C138.173 24.2 139.518 23.901 140.747 23.1371L136.524 16.3429ZM137.395 22.48C139.09 22.48 140.705 21.8415 141.928 20.5415L136.103 15.0585C136.248 14.9037 136.464 14.7385 136.742 14.6217C137.016 14.5068 137.252 14.48 137.395 14.48V22.48ZM141.886 20.5859C143.124 19.3101 143.675 17.7026 143.675 16.08H135.675C135.675 15.9995 135.689 15.8228 135.776 15.597C135.865 15.3643 136 15.1639 136.145 15.0141L141.886 20.5859ZM143.675 16.08V15.64H135.675V16.08H143.675ZM139.675 11.64H138.995V19.64H139.675V11.64ZM138.995 11.64C137.739 11.64 136.159 11.7116 134.873 12.233L137.878 19.647C137.739 19.7033 137.66 19.719 137.674 19.7157C137.684 19.7137 137.74 19.7023 137.856 19.689C138.093 19.6619 138.463 19.64 138.995 19.64V11.64ZM134.926 12.212C134.108 12.5299 133.213 13.1004 132.547 14.0632C131.877 15.0308 131.655 16.0802 131.655 16.98H139.655C139.655 17.3732 139.554 17.9958 139.124 18.6168C138.698 19.2329 138.163 19.5368 137.825 19.668L134.926 12.212ZM131.655 16.98C131.655 18.4685 132.228 19.9267 133.418 21.0139L138.813 15.1061C139.056 15.3283 139.289 15.6333 139.451 16.0126C139.61 16.3863 139.655 16.7283 139.655 16.98H131.655ZM133.418 21.0139C134.67 22.157 136.174 22.48 137.395 22.48V14.48C137.524 14.48 138.174 14.523 138.813 15.1061L133.418 21.0139ZM147.375 20L143.705 21.5911L144.75 24H147.375V20ZM143.135 10.22V6.22H137.041L139.465 11.8111L143.135 10.22ZM145.795 10.22L149.512 8.74194L148.509 6.22H145.795V10.22ZM148.515 17.06L144.798 18.5381L148.448 27.7167L152.213 18.5846L148.515 17.06ZM151.335 10.22V6.22H148.658L147.637 8.69537L151.335 10.22ZM153.835 10.22L157.497 11.83L159.964 6.22H153.835V10.22ZM149.535 20V24H152.146L153.197 21.61L149.535 20ZM151.045 18.4089L146.805 8.62894L139.465 11.8111L143.705 21.5911L151.045 18.4089ZM143.135 14.22H145.795V6.22H143.135V14.22ZM142.078 11.6981L144.798 18.5381L152.232 15.5819L149.512 8.74194L142.078 11.6981ZM152.213 18.5846L155.033 11.7446L147.637 8.69537L144.817 15.5354L152.213 18.5846ZM151.335 14.22H153.835V6.22H151.335V14.22ZM150.174 8.61005L145.874 18.39L153.197 21.61L157.497 11.83L150.174 8.61005ZM149.535 16H147.375V24H149.535V16ZM156.667 19.58L154.73 23.0796L154.73 23.0796L156.667 19.58ZM154.927 17.82L151.399 19.7055L151.406 19.7183L151.413 19.7311L154.927 17.82ZM154.927 12.4L151.413 10.4889L151.413 10.4889L154.927 12.4ZM156.667 10.64L154.73 7.14043L154.73 7.14043L156.667 10.64ZM161.947 10.64L163.884 7.14043L163.884 7.14043L161.947 10.64ZM163.687 12.4L167.201 10.4889L167.201 10.4889L163.687 12.4ZM163.687 17.82L167.201 19.7311L167.208 19.7183L167.215 19.7055L163.687 17.82ZM161.947 19.58L160.01 16.0804L160.01 16.0804L161.947 19.58ZM161.107 17.5L164.155 20.0906L164.17 20.0721L164.186 20.0533L161.107 17.5ZM161.107 12.72L158.059 15.3106L158.075 15.3297L158.092 15.3485L161.107 12.72ZM157.507 12.72L160.522 15.3485L160.538 15.3297L160.555 15.3106L157.507 12.72ZM157.507 17.5L154.428 20.0533L154.443 20.0721L154.459 20.0906L157.507 17.5ZM159.307 16.2C158.844 16.2 158.656 16.109 158.604 16.0804L154.73 23.0796C156.171 23.8776 157.743 24.2 159.307 24.2V16.2ZM158.604 16.0804C158.533 16.0411 158.496 16.0099 158.441 15.9089L151.413 19.7311C152.185 21.1501 153.307 22.2922 154.73 23.0796L158.604 16.0804ZM158.455 15.9345C158.404 15.8402 158.307 15.6044 158.307 15.1H150.307C150.307 16.6756 150.623 18.2531 151.399 19.7055L158.455 15.9345ZM158.307 15.1C158.307 14.5933 158.405 14.3769 158.441 14.3111L151.413 10.4889C150.622 11.9431 150.307 13.5267 150.307 15.1H158.307ZM158.441 14.3111C158.496 14.2101 158.533 14.1789 158.604 14.1396L154.73 7.14043C153.307 7.92775 152.185 9.06988 151.413 10.4889L158.441 14.3111ZM158.604 14.1396C158.656 14.111 158.844 14.02 159.307 14.02V6.02C157.743 6.02 156.171 6.34238 154.73 7.14043L158.604 14.1396ZM159.307 14.02C159.77 14.02 159.958 14.111 160.01 14.1396L163.884 7.14043C162.442 6.34238 160.871 6.02 159.307 6.02V14.02ZM160.01 14.1396C160.081 14.1789 160.118 14.2101 160.173 14.3111L167.201 10.4889C166.429 9.06988 165.306 7.92775 163.884 7.14043L160.01 14.1396ZM160.173 14.3111C160.209 14.3769 160.307 14.5933 160.307 15.1H168.307C168.307 13.5267 167.992 11.9431 167.201 10.4889L160.173 14.3111ZM160.307 15.1C160.307 15.6044 160.21 15.8402 160.159 15.9345L167.215 19.7055C167.991 18.2531 168.307 16.6756 168.307 15.1H160.307ZM160.173 15.9089C160.118 16.0099 160.081 16.0411 160.01 16.0804L163.884 23.0796C165.306 22.2922 166.429 21.1501 167.201 19.7311L160.173 15.9089ZM160.01 16.0804C159.958 16.109 159.77 16.2 159.307 16.2V24.2C160.871 24.2 162.443 23.8776 163.884 23.0796L160.01 16.0804ZM159.307 22.3C161.138 22.3 162.885 21.5838 164.155 20.0906L158.059 14.9094C158.195 14.7498 158.408 14.571 158.692 14.4448C158.969 14.3216 159.197 14.3 159.307 14.3V22.3ZM164.186 20.0533C165.463 18.5131 165.787 16.6503 165.787 15.1H157.787C157.787 15.3512 157.759 15.4341 157.768 15.3996C157.781 15.3543 157.843 15.169 158.028 14.9467L164.186 20.0533ZM165.787 15.1C165.787 13.5721 165.478 11.647 164.122 10.0915L158.092 15.3485C157.864 15.0876 157.788 14.8627 157.771 14.8039C157.757 14.7565 157.787 14.8359 157.787 15.1H165.787ZM164.155 10.1294C162.885 8.63621 161.138 7.92 159.307 7.92V15.92C159.197 15.92 158.969 15.8984 158.692 15.7752C158.408 15.649 158.195 15.4702 158.059 15.3106L164.155 10.1294ZM159.307 7.92C157.476 7.92 155.728 8.63621 154.459 10.1294L160.555 15.3106C160.419 15.4702 160.206 15.649 159.921 15.7752C159.644 15.8984 159.417 15.92 159.307 15.92V7.92ZM154.492 10.0915C153.136 11.647 152.827 13.5721 152.827 15.1H160.827C160.827 14.8359 160.857 14.7565 160.843 14.8039C160.826 14.8627 160.749 15.0876 160.522 15.3485L154.492 10.0915ZM152.827 15.1C152.827 16.6503 153.151 18.5131 154.428 20.0533L160.586 14.9467C160.77 15.169 160.833 15.3543 160.845 15.3996C160.855 15.4341 160.827 15.3512 160.827 15.1H152.827ZM154.459 20.0906C155.728 21.5838 157.476 22.3 159.307 22.3V14.3C159.417 14.3 159.644 14.3216 159.921 14.4448C160.206 14.571 160.419 14.7498 160.555 14.9094L154.459 20.0906ZM166.37 20H162.37V24H166.37V20ZM166.37 10.22V6.22H162.37V10.22H166.37ZM168.81 10.22H172.81V6.22H168.81V10.22ZM168.81 11.94H164.81L172.506 13.4694L168.81 11.94ZM171.89 10.02L172.195 14.0084L172.205 14.0076L171.89 10.02ZM172.65 9.96L176.639 9.65897L176.337 5.6565L172.336 5.97241L172.65 9.96ZM172.81 12.08L173.197 16.0612L177.094 15.6824L176.799 11.779L172.81 12.08ZM171.37 12.22L170.983 8.23877L170.982 8.2389L171.37 12.22ZM168.91 20V24H172.91V20H168.91ZM170.37 20V10.22H162.37V20H170.37ZM166.37 14.22H168.81V6.22H166.37V14.22ZM164.81 10.22V11.94H172.81V10.22H164.81ZM172.506 13.4694C172.482 13.5292 172.431 13.6269 172.34 13.7349C172.249 13.8441 172.147 13.9278 172.056 13.9845C171.881 14.0935 171.862 14.0338 172.195 14.0084L171.586 6.03158C168.969 6.23116 166.328 7.4762 165.114 10.4106L172.506 13.4694ZM172.205 14.0076L172.965 13.9476L172.336 5.97241L171.576 6.03241L172.205 14.0076ZM168.662 10.261L168.822 12.381L176.799 11.779L176.639 9.65897L168.662 10.261ZM172.423 8.09877L170.983 8.23877L171.757 16.2012L173.197 16.0612L172.423 8.09877ZM170.982 8.2389C169.598 8.37391 167.954 8.85307 166.663 10.1759C165.327 11.5445 164.91 13.256 164.91 14.74H172.91C172.91 14.704 172.904 15.2355 172.388 15.7641C171.916 16.2469 171.503 16.2261 171.759 16.2011L170.982 8.2389ZM164.91 14.74V20H172.91V14.74H164.91ZM168.91 16H166.37V24H168.91V16ZM174.042 8.12H170.042V12.12H174.042V8.12ZM174.042 5.68V1.68H170.042V5.68H174.042ZM176.842 5.68H180.842V1.68H176.842V5.68ZM176.842 8.12V12.12H180.842V8.12H176.842ZM174.202 20H170.202V24H174.202V20ZM174.202 10.22V6.22H170.202V10.22H174.202ZM176.702 10.22H180.702V6.22H176.702V10.22ZM176.702 20V24H180.702V20H176.702ZM178.042 8.12V5.68H170.042V8.12H178.042ZM174.042 9.68H176.842V1.68H174.042V9.68ZM172.842 5.68V8.12H180.842V5.68H172.842ZM176.842 4.12H174.042V12.12H176.842V4.12ZM178.202 20V10.22H170.202V20H178.202ZM174.202 14.22H176.702V6.22H174.202V14.22ZM172.702 10.22V20H180.702V10.22H172.702ZM176.702 16H174.202V24H176.702V16ZM179.9 12.1H183.9V8.1H179.9V12.1ZM178.02 12.1H174.02V16.1H178.02V12.1ZM178.02 10.22V6.22H174.02V10.22H178.02ZM179.9 10.22V14.22H183.9V10.22H179.9ZM179.9 7.3V3.3H175.9V7.3H179.9ZM182.4 7.3H186.4V3.3H182.4V7.3ZM182.4 10.22H178.4V14.22H182.4V10.22ZM185.36 10.22H189.36V6.22H185.36V10.22ZM185.36 12.1V16.1H189.36V12.1H185.36ZM182.4 12.1V8.1H178.4V12.1H182.4ZM182.82 17.66L179.81 20.294L179.81 20.294L182.82 17.66ZM184.76 18.08L185.544 22.0023L185.668 21.9775L185.791 21.9449L184.76 18.08ZM185.38 17.92L189.297 17.111L188.454 13.0283L184.41 14.0394L185.38 17.92ZM185.76 19.76L187.703 23.2566L190.272 21.8293L189.677 18.951L185.76 19.76ZM184.84 20.08L184.002 16.1688L183.987 16.172L183.972 16.1753L184.84 20.08ZM183.78 16.2C183.62 16.2 183.506 16.19 183.431 16.1794C183.356 16.1688 183.328 16.1587 183.336 16.1614C183.345 16.1644 183.39 16.1805 183.458 16.2207C183.527 16.2617 183.606 16.3199 183.684 16.397C183.762 16.474 183.822 16.5539 183.866 16.6263C183.909 16.6973 183.928 16.7476 183.933 16.7632C183.938 16.7776 183.929 16.7563 183.92 16.6885C183.91 16.6205 183.9 16.5131 183.9 16.36H175.9C175.9 18.2671 176.386 20.4299 178.056 22.083C179.719 23.7287 181.88 24.2 183.78 24.2V16.2ZM183.9 16.36V12.1H175.9V16.36H183.9ZM179.9 8.1H178.02V16.1H179.9V8.1ZM182.02 12.1V10.22H174.02V12.1H182.02ZM178.02 14.22H179.9V6.22H178.02V14.22ZM183.9 10.22V7.3H175.9V10.22H183.9ZM179.9 11.3H182.4V3.3H179.9V11.3ZM178.4 7.3V10.22H186.4V7.3H178.4ZM182.4 14.22H185.36V6.22H182.4V14.22ZM181.36 10.22V12.1H189.36V10.22H181.36ZM185.36 8.1H182.4V16.1H185.36V8.1ZM178.4 12.1V16.22H186.4V12.1H178.4ZM178.4 16.22C178.4 17.3551 178.637 18.9535 179.81 20.294L185.83 15.026C186.443 15.7265 186.4 16.3649 186.4 16.22H178.4ZM179.81 20.294C181.151 21.8272 182.955 22.14 184.18 22.14V14.14C184.19 14.14 184.393 14.1392 184.701 14.248C185.037 14.3664 185.461 14.6041 185.83 15.026L179.81 20.294ZM184.18 22.14C184.653 22.14 185.11 22.0893 185.544 22.0023L183.976 14.1577C184.01 14.1507 184.08 14.14 184.18 14.14V22.14ZM185.791 21.9449C185.969 21.8973 186.156 21.8492 186.35 21.8006L184.41 14.0394C184.178 14.0975 183.951 14.156 183.729 14.2151L185.791 21.9449ZM181.463 18.729L181.843 20.569L189.677 18.951L189.297 17.111L181.463 18.729ZM183.817 16.2634C183.931 16.2004 184.01 16.171 184.036 16.162C184.063 16.1527 184.055 16.1575 184.002 16.1688L185.678 23.9912C186.299 23.8581 187.012 23.6406 187.703 23.2566L183.817 16.2634ZM183.972 16.1753C183.879 16.196 183.817 16.2 183.78 16.2V24.2C184.436 24.2 185.081 24.124 185.708 23.9847L183.972 16.1753ZM188.838 19.58L187.002 23.1337L188.838 19.58ZM186.978 17.82L183.49 19.7781L183.503 19.8012L183.516 19.8241L186.978 17.82ZM186.958 12.46L183.47 10.5019L183.457 10.5253L183.444 10.5489L186.958 12.46ZM188.698 10.68L190.71 14.1374L190.719 14.1318L190.729 14.1262L188.698 10.68ZM194.518 11.34L191.558 14.0307L191.569 14.0429L191.581 14.055L194.518 11.34ZM195.738 15.68V19.68H199.738V15.68H195.738ZM188.738 15.68V11.68H184.288L184.761 16.1051L188.738 15.68ZM193.378 18.06L194.502 21.8989L194.545 21.8864L194.587 21.8729L193.378 18.06ZM194.878 17.26L198.57 15.7215L196.535 10.8364L192.391 14.1276L194.878 17.26ZM195.578 18.94L198.13 22.0201L200.408 20.1325L199.27 17.4015L195.578 18.94ZM193.818 19.86L192.596 16.0511L193.818 19.86ZM189.558 12.4L192.387 15.2284L192.387 15.2284L189.558 12.4ZM188.738 14.24L184.767 13.7607L184.226 18.24H188.738V14.24ZM193.658 14.24V18.24H197.929L197.65 13.9783L193.658 14.24ZM192.978 12.38L189.973 15.0205L190.016 15.0688L190.06 15.1158L192.978 12.38ZM191.698 16.2C191.086 16.2 190.791 16.0867 190.674 16.0263L187.002 23.1337C188.485 23.9 190.097 24.2 191.698 24.2V16.2ZM190.674 16.0263C190.535 15.9542 190.487 15.8972 190.44 15.8159L183.516 19.8241C184.349 21.2628 185.542 22.3791 187.002 23.1337L190.674 16.0263ZM190.466 15.8619C190.435 15.8057 190.338 15.6068 190.338 15.12H182.338C182.338 16.7132 182.668 18.3143 183.49 19.7781L190.466 15.8619ZM190.338 15.12C190.338 14.6595 190.428 14.4514 190.472 14.3711L183.444 10.5489C182.661 11.9886 182.338 13.5538 182.338 15.12H190.338ZM190.446 14.4181C190.533 14.2629 190.611 14.1949 190.71 14.1374L186.687 7.22261C185.319 8.01845 184.236 9.13712 183.47 10.5019L190.446 14.4181ZM190.729 14.1262C190.804 14.0818 190.938 14.02 191.238 14.02V6.02C189.645 6.02 188.085 6.39821 186.667 7.23385L190.729 14.1262ZM191.238 14.02C191.374 14.02 191.467 14.0308 191.524 14.041C191.581 14.051 191.605 14.0607 191.605 14.0608C191.605 14.061 191.602 14.0597 191.596 14.0564C191.59 14.0531 191.583 14.0488 191.575 14.0438C191.559 14.0325 191.553 14.0253 191.558 14.0307L197.478 8.64931C195.792 6.79482 193.547 6.02 191.238 6.02V14.02ZM191.581 14.055C191.585 14.0595 191.611 14.0842 191.645 14.1838C191.683 14.2972 191.738 14.5321 191.738 14.94H199.738C199.738 12.6942 199.121 10.4272 197.456 8.62503L191.581 14.055ZM191.738 14.94V15.68H199.738V14.94H191.738ZM195.738 11.68H188.738V19.68H195.738V11.68ZM184.761 16.1051C184.926 17.6485 185.52 19.3681 186.997 20.6578C188.455 21.9312 190.219 22.3 191.738 22.3V14.3C191.444 14.3 191.801 14.2321 192.259 14.6322C192.736 15.0486 192.737 15.4582 192.715 15.2549L184.761 16.1051ZM191.738 22.3C192.681 22.3 193.605 22.1613 194.502 21.8989L192.255 14.2211C192.057 14.2787 191.889 14.3 191.738 14.3V22.3ZM194.587 21.8729C195.602 21.551 196.535 21.0523 197.366 20.3924L192.391 14.1276C192.315 14.1877 192.247 14.2223 192.169 14.2471L194.587 21.8729ZM191.186 18.7985L191.886 20.4785L199.27 17.4015L198.57 15.7215L191.186 18.7985ZM193.026 15.8599C193.03 15.8569 192.923 15.9464 192.596 16.0511L195.04 23.6689C196.126 23.3203 197.193 22.7964 198.13 22.0201L193.026 15.8599ZM192.596 16.0511C192.265 16.1575 191.97 16.2 191.698 16.2V24.2C192.84 24.2 193.958 24.0158 195.04 23.6689L192.596 16.0511ZM191.338 7.72C189.71 7.72 188.043 8.25849 186.73 9.57157L192.387 15.2284C192.219 15.3958 192.005 15.5372 191.771 15.6266C191.547 15.7121 191.385 15.72 191.338 15.72V7.72ZM186.73 9.57157C185.516 10.7852 184.944 12.2954 184.767 13.7607L192.709 14.7193C192.716 14.6673 192.716 14.717 192.667 14.8282C192.614 14.9473 192.522 15.0927 192.387 15.2284L186.73 9.57157ZM188.738 18.24H193.658V10.24H188.738V18.24ZM197.65 13.9783C197.559 12.6005 197.139 10.9695 195.896 9.64424L190.06 15.1158C189.618 14.6439 189.65 14.2529 189.667 14.5017L197.65 13.9783ZM195.983 9.73954C194.681 8.25808 192.936 7.72 191.338 7.72V15.72C191.279 15.72 191.071 15.7108 190.785 15.5958C190.481 15.4736 190.196 15.2735 189.973 15.0205L195.983 9.73954ZM206.749 20H202.749V24H206.749V20ZM206.749 8.04H210.749V4.04H206.749V8.04ZM201.909 8.04H197.909V12.04H201.909V8.04ZM201.909 5.9V1.9H197.909V5.9H201.909ZM214.149 5.9H218.149V1.9H214.149V5.9ZM214.149 8.04V12.04H218.149V8.04H214.149ZM209.309 8.04V4.04H205.309V8.04H209.309ZM209.309 20V24H213.309V20H209.309ZM210.749 20V8.04H202.749V20H210.749ZM206.749 4.04H201.909V12.04H206.749V4.04ZM205.909 8.04V5.9H197.909V8.04H205.909ZM201.909 9.9H214.149V1.9H201.909V9.9ZM210.149 5.9V8.04H218.149V5.9H210.149ZM214.149 4.04H209.309V12.04H214.149V4.04ZM205.309 8.04V20H213.309V8.04H205.309ZM209.309 16H206.749V24H209.309V16ZM213.968 20H209.968V24H213.968V20ZM213.968 10.22V6.22H209.968V10.22H213.968ZM216.408 10.22H220.408V6.22H216.408V10.22ZM216.408 11.94H212.408L220.104 13.4694L216.408 11.94ZM219.488 10.02L219.792 14.0084L219.803 14.0076L219.488 10.02ZM220.248 9.96L224.237 9.65897L223.935 5.6565L219.933 5.97241L220.248 9.96ZM220.408 12.08L220.795 16.0612L224.691 15.6824L224.397 11.779L220.408 12.08ZM218.968 12.22L218.581 8.23877L218.58 8.2389L218.968 12.22ZM216.508 20V24H220.508V20H216.508ZM217.968 20V10.22H209.968V20H217.968ZM213.968 14.22H216.408V6.22H213.968V14.22ZM212.408 10.22V11.94H220.408V10.22H212.408ZM220.104 13.4694C220.079 13.5292 220.028 13.6269 219.938 13.7349C219.846 13.8441 219.745 13.9278 219.654 13.9845C219.479 14.0935 219.459 14.0338 219.792 14.0084L219.184 6.03158C216.567 6.23116 213.926 7.4762 212.712 10.4106L220.104 13.4694ZM219.803 14.0076L220.563 13.9476L219.933 5.97241L219.173 6.03241L219.803 14.0076ZM216.259 10.261L216.419 12.381L224.397 11.779L224.237 9.65897L216.259 10.261ZM220.021 8.09877L218.581 8.23877L219.355 16.2012L220.795 16.0612L220.021 8.09877ZM218.58 8.2389C217.196 8.37391 215.552 8.85307 214.261 10.1759C212.925 11.5445 212.508 13.256 212.508 14.74H220.508C220.508 14.704 220.501 15.2355 219.985 15.7641C219.514 16.2469 219.1 16.2261 219.356 16.2011L218.58 8.2389ZM212.508 14.74V20H220.508V14.74H212.508ZM216.508 16H213.968V24H216.508V16ZM223.604 19.58L221.768 23.1337L223.604 19.58ZM221.744 17.82L218.256 19.7781L218.269 19.8012L218.282 19.8241L221.744 17.82ZM221.724 12.46L218.236 10.5019L218.223 10.5253L218.21 10.5489L221.724 12.46ZM223.464 10.68L225.475 14.1374L225.485 14.1318L225.495 14.1262L223.464 10.68ZM229.284 11.34L226.324 14.0307L226.335 14.0429L226.346 14.055L229.284 11.34ZM230.504 15.68V19.68H234.504V15.68H230.504ZM223.504 15.68V11.68H219.053L219.526 16.1051L223.504 15.68ZM228.144 18.06L229.267 21.8989L229.31 21.8864L229.353 21.8729L228.144 18.06ZM229.644 17.26L233.336 15.7215L231.301 10.8364L227.156 14.1276L229.644 17.26ZM230.344 18.94L232.896 22.0201L235.174 20.1325L234.036 17.4015L230.344 18.94ZM228.584 19.86L227.362 16.0511L228.584 19.86ZM224.324 12.4L227.152 15.2284L227.152 15.2284L224.324 12.4ZM223.504 14.24L219.533 13.7607L218.992 18.24H223.504V14.24ZM228.424 14.24V18.24H232.695L232.415 13.9783L228.424 14.24ZM227.744 12.38L224.739 15.0205L224.782 15.0688L224.826 15.1158L227.744 12.38ZM226.464 16.2C225.852 16.2 225.557 16.0867 225.44 16.0263L221.768 23.1337C223.251 23.9 224.862 24.2 226.464 24.2V16.2ZM225.44 16.0263C225.3 15.9542 225.253 15.8972 225.205 15.8159L218.282 19.8241C219.115 21.2628 220.307 22.3791 221.768 23.1337L225.44 16.0263ZM225.232 15.8619C225.2 15.8057 225.104 15.6068 225.104 15.12H217.104C217.104 16.7132 217.434 18.3143 218.256 19.7781L225.232 15.8619ZM225.104 15.12C225.104 14.6595 225.194 14.4514 225.238 14.3711L218.21 10.5489C217.427 11.9886 217.104 13.5538 217.104 15.12H225.104ZM225.212 14.4181C225.299 14.2629 225.377 14.1949 225.475 14.1374L221.452 7.22261C220.084 8.01845 219.002 9.13712 218.236 10.5019L225.212 14.4181ZM225.495 14.1262C225.57 14.0818 225.703 14.02 226.004 14.02V6.02C224.411 6.02 222.851 6.39821 221.433 7.23385L225.495 14.1262ZM226.004 14.02C226.139 14.02 226.232 14.0308 226.29 14.041C226.346 14.051 226.37 14.0607 226.37 14.0608C226.371 14.061 226.368 14.0597 226.362 14.0564C226.355 14.0531 226.348 14.0488 226.341 14.0438C226.325 14.0325 226.319 14.0253 226.324 14.0307L232.244 8.64931C230.558 6.79482 228.312 6.02 226.004 6.02V14.02ZM226.346 14.055C226.35 14.0595 226.377 14.0842 226.41 14.1838C226.449 14.2972 226.504 14.5321 226.504 14.94H234.504C234.504 12.6942 233.887 10.4272 232.221 8.62503L226.346 14.055ZM226.504 14.94V15.68H234.504V14.94H226.504ZM230.504 11.68H223.504V19.68H230.504V11.68ZM219.526 16.1051C219.691 17.6485 220.286 19.3681 221.763 20.6578C223.221 21.9312 224.985 22.3 226.504 22.3V14.3C226.209 14.3 226.567 14.2321 227.025 14.6322C227.502 15.0486 227.503 15.4582 227.481 15.2549L219.526 16.1051ZM226.504 22.3C227.446 22.3 228.371 22.1613 229.267 21.8989L227.02 14.2211C226.823 14.2787 226.654 14.3 226.504 14.3V22.3ZM229.353 21.8729C230.368 21.551 231.3 21.0523 232.131 20.3924L227.156 14.1276C227.08 14.1877 227.013 14.2223 226.935 14.2471L229.353 21.8729ZM225.951 18.7985L226.651 20.4785L234.036 17.4015L233.336 15.7215L225.951 18.7985ZM227.792 15.8599C227.795 15.8569 227.689 15.9464 227.362 16.0511L229.805 23.6689C230.892 23.3203 231.959 22.7964 232.896 22.0201L227.792 15.8599ZM227.362 16.0511C227.03 16.1575 226.735 16.2 226.464 16.2V24.2C227.606 24.2 228.724 24.0158 229.805 23.6689L227.362 16.0511ZM226.104 7.72C224.475 7.72 222.808 8.25849 221.495 9.57157L227.152 15.2284C226.985 15.3958 226.77 15.5372 226.536 15.6266C226.312 15.7121 226.151 15.72 226.104 15.72V7.72ZM221.495 9.57157C220.282 10.7852 219.709 12.2954 219.533 13.7607L227.475 14.7193C227.481 14.6673 227.482 14.717 227.432 14.8282C227.379 14.9473 227.288 15.0927 227.152 15.2284L221.495 9.57157ZM223.504 18.24H228.424V10.24H223.504V18.24ZM232.415 13.9783C232.325 12.6005 231.904 10.9695 230.662 9.64424L224.826 15.1158C224.383 14.6439 224.416 14.2529 224.432 14.5017L232.415 13.9783ZM230.748 9.73954C229.447 8.25808 227.702 7.72 226.104 7.72V15.72C226.045 15.72 225.836 15.7108 225.55 15.5958C225.247 15.4736 224.961 15.2735 224.739 15.0205L230.748 9.73954ZM232.484 20H228.484V24H232.484V20ZM232.484 10.22V6.22H228.484V10.22H232.484ZM234.924 10.22H238.924V6.22H234.924V10.22ZM234.924 11.74H230.924V26.2804L238.361 13.7859L234.924 11.74ZM236.264 10.46L234.442 6.89901L234.425 6.90776L234.408 6.91667L236.264 10.46ZM241.644 20V24H245.644V20H241.644ZM239.144 20H235.144V24H239.144V20ZM238.704 12.5L235.592 15.0133L235.621 15.0489L235.65 15.0838L238.704 12.5ZM235.624 12.68L232.713 9.93595L232.711 9.93854L235.624 12.68ZM234.984 20V24H238.984V20H234.984ZM236.484 20V10.22H228.484V20H236.484ZM232.484 14.22H234.924V6.22H232.484V14.22ZM230.924 10.22V11.74H238.924V10.22H230.924ZM238.361 13.7859C238.352 13.8002 238.324 13.842 238.272 13.8924C238.218 13.9434 238.163 13.9806 238.12 14.0033L234.408 6.91667C233.171 7.56428 232.186 8.51896 231.486 9.69406L238.361 13.7859ZM238.085 14.021C238.072 14.0278 238.063 14.0299 238.067 14.0289C238.073 14.0277 238.108 14.02 238.184 14.02V6.02C236.906 6.02 235.632 6.28985 234.442 6.89901L238.085 14.021ZM238.184 14.02C238.382 14.02 238.378 14.0498 238.253 14.0013C238.188 13.9761 238.101 13.9336 238.005 13.8667C237.908 13.7992 237.82 13.7197 237.747 13.6344C237.596 13.4591 237.569 13.3365 237.582 13.3843C237.6 13.4439 237.644 13.6439 237.644 14.04H245.644C245.644 12.2181 245.264 10.1051 243.81 8.41563C242.257 6.61135 240.123 6.02 238.184 6.02V14.02ZM237.644 14.04V20H245.644V14.04H237.644ZM241.644 16H239.144V24H241.644V16ZM243.144 20V14.16H235.144V20H243.144ZM243.144 14.16C243.144 13.0415 242.956 11.3335 241.757 9.91623L235.65 15.0838C235.327 14.7021 235.207 14.3516 235.167 14.1999C235.128 14.0535 235.144 14.0204 235.144 14.16H243.144ZM241.815 9.98665C240.534 8.40009 238.746 7.98 237.384 7.98V15.98C237.311 15.98 237.051 15.971 236.697 15.8316C236.315 15.6808 235.913 15.4115 235.592 15.0133L241.815 9.98665ZM237.384 7.98C235.722 7.98 234.02 8.54985 232.713 9.93595L238.534 15.4241C238.36 15.6087 238.13 15.7691 237.872 15.8718C237.625 15.9699 237.443 15.98 237.384 15.98V7.98ZM232.711 9.93854C231.439 11.2903 230.984 12.9583 230.984 14.5H238.984C238.984 14.4918 238.985 14.6094 238.917 14.8019C238.845 15.0072 238.718 15.2283 238.536 15.4215L232.711 9.93854ZM230.984 14.5V20H238.984V14.5H230.984ZM234.984 16H232.484V24H234.984V16ZM245.683 19.58L243.513 22.9402L243.528 22.9503L243.544 22.9603L245.683 19.58ZM244.183 17.82L240.556 19.5081L240.562 19.5203L240.568 19.5323L244.183 17.82ZM244.183 12.4L247.786 14.1372L247.792 14.1248L247.798 14.1123L244.183 12.4ZM245.683 10.64L243.544 7.25968L243.528 7.26969L243.513 7.27984L245.683 10.64ZM249.823 10.48L247.902 13.9884L247.902 13.9884L249.823 10.48ZM251.083 11.7L247.582 13.6347L255.083 11.7H251.083ZM251.083 5.9V1.9H247.083V5.9H251.083ZM253.583 5.9H257.583V1.9H253.583V5.9ZM253.583 20V24H257.583V20H253.583ZM251.143 20H247.143V24H251.143V20ZM251.143 18.38H255.143L247.531 16.6603L251.143 18.38ZM249.883 19.72L251.832 23.2128L251.863 23.1957L251.893 23.178L249.883 19.72ZM250.443 17.5L253.491 20.0906L253.506 20.0721L253.522 20.0533L250.443 17.5ZM250.443 12.72L247.395 15.3106L247.411 15.3297L247.428 15.3485L250.443 12.72ZM246.843 12.72L249.858 15.3485L249.874 15.3297L249.891 15.3106L246.843 12.72ZM246.843 17.5L243.764 20.0533L243.779 20.0721L243.795 20.0906L246.843 17.5ZM247.943 16.2C247.841 16.2 247.798 16.188 247.796 16.1875C247.794 16.187 247.798 16.1879 247.805 16.191C247.812 16.1941 247.818 16.1974 247.821 16.1997L243.544 22.9603C244.903 23.8198 246.414 24.2 247.943 24.2V16.2ZM247.853 16.2198C247.856 16.2221 247.862 16.2259 247.867 16.2305C247.872 16.235 247.874 16.2374 247.872 16.2354C247.87 16.2329 247.841 16.1984 247.798 16.1077L240.568 19.5323C241.213 20.8932 242.183 22.0815 243.513 22.9402L247.853 16.2198ZM247.809 16.1319C247.743 15.9902 247.643 15.6821 247.643 15.1H239.643C239.643 16.5979 239.902 18.1031 240.556 19.5081L247.809 16.1319ZM247.643 15.1C247.643 14.4904 247.748 14.2158 247.786 14.1372L240.58 10.6628C239.898 12.0775 239.643 13.603 239.643 15.1H247.643ZM247.798 14.1123C247.841 14.0216 247.87 13.9871 247.872 13.9846C247.874 13.9826 247.872 13.985 247.867 13.9895C247.862 13.9941 247.856 13.9979 247.853 14.0002L243.513 7.27984C242.183 8.13846 241.213 9.32675 240.568 10.6877L247.798 14.1123ZM247.821 14.0203C247.818 14.0226 247.812 14.0259 247.805 14.029C247.798 14.0321 247.794 14.033 247.796 14.0325C247.798 14.032 247.841 14.02 247.943 14.02V6.02C246.414 6.02 244.903 6.40017 243.544 7.25968L247.821 14.0203ZM247.943 14.02C247.969 14.02 247.983 14.0214 247.989 14.022C247.994 14.0226 247.991 14.0226 247.982 14.0204C247.973 14.0181 247.96 14.0143 247.945 14.0083C247.929 14.0024 247.915 13.9955 247.902 13.9884L251.744 6.97161C250.545 6.3151 249.248 6.02 247.943 6.02V14.02ZM247.902 13.9884C247.896 13.9854 247.845 13.9563 247.775 13.8887C247.704 13.8191 247.635 13.7317 247.582 13.6347L254.584 9.76525C253.9 8.52757 252.898 7.60368 251.744 6.97161L247.902 13.9884ZM255.083 11.7V5.9H247.083V11.7H255.083ZM251.083 9.9H253.583V1.9H251.083V9.9ZM249.583 5.9V20H257.583V5.9H249.583ZM253.583 16H251.143V24H253.583V16ZM255.143 20V18.38H247.143V20H255.143ZM247.531 16.6603C247.574 16.5705 247.636 16.4771 247.714 16.3949C247.789 16.3145 247.852 16.2739 247.872 16.262L251.893 23.178C253.112 22.4692 254.117 21.4384 254.754 20.0997L247.531 16.6603ZM247.933 16.2272C247.946 16.2201 247.96 16.2134 247.975 16.2077C247.989 16.2021 248 16.1988 248.007 16.1971C248.014 16.1954 248.013 16.196 248.004 16.1971C247.994 16.1982 247.975 16.2 247.943 16.2V24.2C249.278 24.2 250.607 23.8968 251.832 23.2128L247.933 16.2272ZM248.643 22.3C250.474 22.3 252.221 21.5838 253.491 20.0906L247.395 14.9094C247.531 14.7498 247.744 14.571 248.028 14.4448C248.305 14.3216 248.533 14.3 248.643 14.3V22.3ZM253.522 20.0533C254.799 18.5131 255.123 16.6503 255.123 15.1H247.123C247.123 15.3512 247.095 15.4341 247.104 15.3996C247.117 15.3543 247.179 15.169 247.364 14.9467L253.522 20.0533ZM255.123 15.1C255.123 13.5721 254.814 11.647 253.458 10.0915L247.428 15.3485C247.2 15.0876 247.124 14.8627 247.107 14.8039C247.093 14.7565 247.123 14.8359 247.123 15.1H255.123ZM253.491 10.1294C252.221 8.63621 250.474 7.92 248.643 7.92V15.92C248.533 15.92 248.305 15.8984 248.028 15.7752C247.744 15.649 247.531 15.4702 247.395 15.3106L253.491 10.1294ZM248.643 7.92C246.812 7.92 245.064 8.63621 243.795 10.1294L249.891 15.3106C249.755 15.4702 249.541 15.649 249.257 15.7752C248.98 15.8984 248.753 15.92 248.643 15.92V7.92ZM243.828 10.0915C242.472 11.647 242.163 13.5721 242.163 15.1H250.163C250.163 14.8359 250.192 14.7565 250.179 14.8039C250.162 14.8627 250.085 15.0876 249.858 15.3485L243.828 10.0915ZM242.163 15.1C242.163 16.6503 242.486 18.5131 243.764 20.0533L249.922 14.9467C250.106 15.169 250.168 15.3543 250.181 15.3996C250.191 15.4341 250.163 15.3512 250.163 15.1H242.163ZM243.795 20.0906C245.064 21.5838 246.812 22.3 248.643 22.3V14.3C248.753 14.3 248.98 14.3216 249.257 14.4448C249.541 14.571 249.755 14.7498 249.891 14.9094L243.795 20.0906ZM257.435 19.9L256.364 23.7541L257.435 19.9ZM255.635 19.04L251.909 17.5858L250.824 20.3655L253.179 22.1974L255.635 19.04ZM256.275 17.4L258.514 14.0856L254.368 11.284L252.549 15.9458L256.275 17.4ZM257.935 18.18L256.77 22.0067L256.809 22.0184L256.847 22.0292L257.935 18.18ZM261.195 18.12L263.479 21.4036L263.493 21.3939L263.507 21.3841L261.195 18.12ZM260.435 16.16L261.195 12.2329L261.182 12.2303L260.435 16.16ZM258.435 15.78L259.182 11.8503L259.178 11.8496L258.435 15.78ZM256.415 11.48L253.248 9.03679L253.226 9.06555L253.204 9.0947L256.415 11.48ZM262.055 10.32L260.862 14.1379L260.898 14.1493L260.935 14.16L262.055 10.32ZM263.695 11.18L267.39 12.7121L268.504 10.0246L266.291 8.13666L263.695 11.18ZM263.015 12.82L260.465 15.9016L264.636 19.3537L266.71 14.3521L263.015 12.82ZM261.615 12.06L260.294 15.8354L260.308 15.8405L260.322 15.8454L261.615 12.06ZM258.615 12.12L256.303 8.8559L256.27 8.87927L256.237 8.9033L258.615 12.12ZM259.295 14.1L260.042 10.1703L260.014 10.165L259.986 10.1602L259.295 14.1ZM261.295 14.48L260.548 18.4097L260.559 18.4116L260.569 18.4135L261.295 14.48ZM263.255 15.36L260.47 18.2316L260.492 18.2524L260.514 18.2728L263.255 15.36ZM262.795 19.38L265.131 22.6272L265.149 22.6138L265.168 22.6002L262.795 19.38ZM259.755 16.2C259.252 16.2 258.842 16.1394 258.506 16.0459L256.364 23.7541C257.468 24.0606 258.604 24.2 259.755 24.2V16.2ZM258.506 16.0459C258.177 15.9546 258.076 15.8714 258.091 15.8826L253.179 22.1974C254.154 22.9553 255.253 23.4454 256.364 23.7541L258.506 16.0459ZM259.361 20.4942L260.001 18.8542L252.549 15.9458L251.909 17.5858L259.361 20.4942ZM254.036 20.7144C254.884 21.2876 255.804 21.7127 256.77 22.0067L259.1 14.3533C258.839 14.2739 258.653 14.179 258.514 14.0856L254.036 20.7144ZM256.847 22.0292C257.801 22.2987 258.78 22.44 259.775 22.44V14.44C259.544 14.44 259.296 14.408 259.023 14.3308L256.847 22.0292ZM259.775 22.44C260.712 22.44 262.175 22.3112 263.479 21.4036L258.911 14.8364C259.287 14.5744 259.607 14.4857 259.731 14.4579C259.857 14.4293 259.887 14.44 259.775 14.44V22.44ZM263.507 21.3841C264.775 20.4858 265.675 19.0272 265.675 17.24H257.675C257.675 16.804 257.778 16.3005 258.043 15.8146C258.302 15.3408 258.631 15.034 258.883 14.8559L263.507 21.3841ZM265.675 17.24C265.675 15.8321 265.092 14.492 263.992 13.5337C263.043 12.7068 261.96 12.3809 261.195 12.2329L259.675 20.0871C259.672 20.0866 259.65 20.0822 259.61 20.0708C259.571 20.0594 259.51 20.0394 259.431 20.0063C259.278 19.9422 259.02 19.8119 258.738 19.5663C258.444 19.31 258.154 18.9538 257.949 18.4968C257.744 18.0419 257.675 17.6023 257.675 17.24H265.675ZM261.182 12.2303L259.182 11.8503L257.688 19.7097L259.688 20.0897L261.182 12.2303ZM259.178 11.8496C258.823 11.7825 259.067 11.7476 259.412 12.1067C259.591 12.2926 259.728 12.5166 259.811 12.7437C259.89 12.9594 259.895 13.1085 259.895 13.14H251.895C251.895 14.6959 252.381 16.3365 253.648 17.6533C254.84 18.8924 256.354 19.4575 257.692 19.7104L259.178 11.8496ZM259.895 13.14C259.895 13.1838 259.889 13.2925 259.842 13.4407C259.794 13.5929 259.719 13.7398 259.626 13.8653L253.204 9.0947C252.293 10.321 251.895 11.7322 251.895 13.14H259.895ZM259.582 13.9232C259.523 14.0002 259.461 14.0562 259.413 14.0912C259.367 14.1243 259.354 14.1249 259.394 14.1084L256.396 6.69156C255.209 7.17136 254.102 7.92942 253.248 9.03679L259.582 13.9232ZM259.394 14.1084C259.458 14.0825 259.654 14.02 260.055 14.02V6.02C258.83 6.02 257.585 6.21081 256.396 6.69156L259.394 14.1084ZM260.055 14.02C260.358 14.02 260.621 14.0627 260.862 14.1379L263.248 6.50208C262.209 6.17732 261.139 6.02 260.055 6.02V14.02ZM260.935 14.16C261.02 14.1848 261.067 14.207 261.087 14.2175C261.106 14.2274 261.107 14.2302 261.099 14.2233L266.291 8.13666C265.359 7.34176 264.293 6.80607 263.175 6.48L260.935 14.16ZM260 9.64794L259.32 11.2879L266.71 14.3521L267.39 12.7121L260 9.64794ZM265.565 9.73842C264.754 9.06674 263.844 8.59448 262.908 8.2746L260.322 15.8454C260.479 15.8988 260.503 15.9333 260.465 15.9016L265.565 9.73842ZM262.936 8.28457C262.039 7.97053 261.078 7.78 260.075 7.78V15.78C260.058 15.78 260.124 15.7761 260.294 15.8354L262.936 8.28457ZM260.075 7.78C259.092 7.78 257.616 7.92601 256.303 8.8559L260.927 15.3841C260.566 15.6402 260.256 15.7308 260.127 15.7608C259.998 15.7908 259.966 15.78 260.075 15.78V7.78ZM256.237 8.9033C254.936 9.86507 254.155 11.346 254.155 13.02H262.155C262.155 13.3968 262.073 13.8631 261.832 14.3354C261.592 14.8049 261.271 15.1312 260.993 15.3367L256.237 8.9033ZM254.155 13.02C254.155 14.2655 254.601 15.6034 255.689 16.6338C256.66 17.5533 257.797 17.8982 258.604 18.0398L259.986 10.1602C260.033 10.1685 260.6 10.2667 261.191 10.8262C261.899 11.4966 262.155 12.3612 262.155 13.02H254.155ZM258.548 18.0297L260.548 18.4097L262.042 10.5503L260.042 10.1703L258.548 18.0297ZM260.569 18.4135C260.757 18.4483 260.819 18.4793 260.797 18.4691C260.769 18.4567 260.635 18.3916 260.47 18.2316L266.04 12.4884C264.836 11.3209 263.34 10.7899 262.021 10.5465L260.569 18.4135ZM260.514 18.2728C260.316 18.0872 260.15 17.8463 260.045 17.5806C259.945 17.3275 259.935 17.1403 259.935 17.08H267.935C267.935 15.4458 267.381 13.7501 265.996 12.4472L260.514 18.2728ZM259.935 17.08C259.935 17.0356 259.947 16.849 260.066 16.6086C260.187 16.364 260.343 16.218 260.422 16.1598L265.168 22.6002C266.988 21.2591 267.935 19.2778 267.935 17.08H259.935ZM260.459 16.1328C260.583 16.0438 260.474 16.2 259.755 16.2V24.2C261.569 24.2 263.487 23.8095 265.131 22.6272L260.459 16.1328Z" fill="black" mask="url(#path-2-outside-1_801_98)"/>
</g>
<defs>
<filter id="filter0_i_801_98" x="0.5" y="0" width="265" height="31" filterUnits="userSpaceOnUse" color-interpolation-filters="sRGB">
<feFlood flood-opacity="0" result="BackgroundImageFix"/>
<feBlend mode="normal" in="SourceGraphic" in2="BackgroundImageFix" result="shape"/>
<feColorMatrix in="SourceAlpha" type="matrix" values="0 0 0 0 0 0 0 0 0 0 0 0 0 0 0 0 0 0 127 0" result="hardAlpha"/>
<feOffset dy="4"/>
<feGaussianBlur stdDeviation="2"/>
<feComposite in2="hardAlpha" operator="arithmetic" k2="-1" k3="1"/>
<feColorMatrix type="matrix" values="0 0 0 0 0 0 0 0 0 0 0 0 0 0 0 0 0 0 0.25 0"/>
<feBlend mode="normal" in2="shape" result="effect1_innerShadow_801_98"/>
</filter>
</defs>
</svg>
