<svg width="1135" height="421" viewBox="0 0 1135 421" fill="none" xmlns="http://www.w3.org/2000/svg">
<g filter="url(#filter0_d_113_873)">
<rect x="153.231" y="152.734" width="828.62" height="115.95" rx="29" fill="#1C1F28"/>
</g>
<g filter="url(#filter1_d_113_873)">
<rect x="147.777" y="153.73" width="837.36" height="113.526" rx="29.2566" fill="#1C1F28" shape-rendering="crispEdges"/>
<rect x="149.795" y="155.748" width="833.325" height="109.491" rx="27.2389" stroke="url(#paint0_linear_113_873)" stroke-width="4.0354" shape-rendering="crispEdges"/>
<path d="M219.69 188.972C219.339 188.855 219.339 188.36 219.69 188.243L221.748 187.558C222.2 187.407 222.611 187.153 222.948 186.816C223.285 186.478 223.539 186.067 223.69 185.615L224.375 183.558C224.492 183.208 224.987 183.208 225.104 183.558L225.789 185.616C225.94 186.068 226.194 186.479 226.531 186.816C226.869 187.153 227.28 187.407 227.732 187.558L229.789 188.243C229.866 188.268 229.933 188.317 229.98 188.382C230.028 188.448 230.053 188.527 230.053 188.607C230.053 188.688 230.028 188.767 229.98 188.832C229.933 188.898 229.866 188.947 229.789 188.972L227.731 189.657C227.279 189.808 226.868 190.062 226.531 190.399C226.194 190.736 225.94 191.147 225.789 191.599L225.104 193.657C225.079 193.733 225.03 193.8 224.965 193.848C224.899 193.895 224.82 193.92 224.74 193.92C224.659 193.92 224.58 193.895 224.515 193.848C224.449 193.8 224.4 193.733 224.375 193.657L223.69 191.599C223.539 191.147 223.285 190.736 222.948 190.399C222.611 190.062 222.2 189.808 221.748 189.657L219.69 188.972ZM214.273 193.075C214.227 193.06 214.187 193.031 214.158 192.992C214.13 192.952 214.114 192.905 214.114 192.857C214.114 192.808 214.13 192.761 214.158 192.722C214.187 192.682 214.227 192.653 214.273 192.638L215.507 192.227C216.057 192.043 216.489 191.612 216.673 191.061L217.084 189.827C217.099 189.781 217.128 189.741 217.168 189.713C217.207 189.684 217.254 189.669 217.303 189.669C217.351 189.669 217.398 189.684 217.438 189.713C217.477 189.741 217.506 189.781 217.521 189.827L217.933 191.061C218.023 191.333 218.175 191.579 218.378 191.782C218.58 191.984 218.827 192.136 219.098 192.227L220.333 192.638C220.379 192.653 220.419 192.682 220.447 192.722C220.475 192.761 220.491 192.808 220.491 192.857C220.491 192.905 220.475 192.952 220.447 192.992C220.419 193.031 220.379 193.06 220.333 193.075L219.098 193.487C218.827 193.577 218.58 193.729 218.378 193.932C218.175 194.134 218.023 194.381 217.933 194.652L217.521 195.886C217.506 195.932 217.477 195.972 217.438 196.001C217.398 196.029 217.351 196.044 217.303 196.044C217.254 196.044 217.207 196.029 217.168 196.001C217.128 195.972 217.099 195.932 217.084 195.886L216.673 194.652C216.582 194.381 216.43 194.134 216.227 193.932C216.025 193.729 215.779 193.577 215.507 193.487L214.273 193.075ZM213.158 185.566C213.128 185.556 213.102 185.536 213.083 185.51C213.064 185.484 213.055 185.453 213.055 185.421C213.055 185.389 213.064 185.357 213.083 185.331C213.102 185.305 213.128 185.285 213.158 185.275L213.98 185.001C214.348 184.879 214.636 184.591 214.758 184.223L215.032 183.401C215.043 183.371 215.062 183.345 215.088 183.326C215.115 183.308 215.146 183.298 215.178 183.298C215.21 183.298 215.241 183.308 215.267 183.326C215.293 183.345 215.313 183.371 215.323 183.401L215.597 184.223C215.658 184.404 215.759 184.569 215.894 184.704C216.029 184.839 216.194 184.941 216.375 185.001L217.197 185.275C217.228 185.285 217.254 185.305 217.272 185.331C217.291 185.357 217.301 185.389 217.301 185.421C217.301 185.453 217.291 185.484 217.272 185.51C217.254 185.536 217.228 185.556 217.197 185.566L216.375 185.84C216.194 185.9 216.029 186.002 215.894 186.137C215.759 186.272 215.658 186.437 215.597 186.618L215.323 187.439C215.313 187.469 215.293 187.495 215.267 187.514C215.241 187.533 215.21 187.542 215.178 187.542C215.146 187.542 215.115 187.533 215.088 187.514C215.062 187.495 215.043 187.469 215.032 187.439L214.758 186.617C214.636 186.249 214.348 185.961 213.98 185.839L213.158 185.566Z" fill="white"/>
<path d="M223.335 232.487L211.967 220.734C214.704 216.967 216.182 212.382 216.177 207.67C216.177 195.636 206.707 185.845 195.067 185.845C183.427 185.845 173.958 195.636 173.958 207.67C173.958 219.705 183.427 229.495 195.067 229.495C199.624 229.501 204.059 227.973 207.702 225.143L219.07 236.897C219.646 237.428 220.396 237.712 221.168 237.69C221.939 237.668 222.673 237.341 223.219 236.776C223.765 236.212 224.081 235.453 224.102 234.656C224.124 233.858 223.849 233.082 223.335 232.487ZM179.989 207.67C179.989 204.587 180.873 201.573 182.53 199.009C184.187 196.446 186.542 194.448 189.297 193.268C192.052 192.088 195.084 191.779 198.009 192.381C200.934 192.982 203.62 194.467 205.729 196.647C207.838 198.827 209.274 201.605 209.856 204.629C210.437 207.653 210.139 210.787 208.997 213.636C207.856 216.485 205.924 218.919 203.444 220.632C200.964 222.345 198.049 223.26 195.067 223.26C191.07 223.255 187.237 221.611 184.41 218.688C181.584 215.766 179.994 211.803 179.989 207.67Z" fill="white"/>
<rect x="888.338" y="175.688" width="70.6195" height="69.6106" rx="10.0885" fill="#272B34"/>
<path d="M921.471 210.495L913.037 210.495M940.105 209.538C940.285 209.625 940.436 209.761 940.542 209.93C940.647 210.1 940.703 210.295 940.703 210.495C940.703 210.694 940.647 210.89 940.541 211.059C940.435 211.228 940.283 211.364 940.104 211.451L907.98 226.921C907.788 227.014 907.572 227.046 907.361 227.015C907.151 226.983 906.954 226.889 906.797 226.744C906.641 226.6 906.531 226.412 906.483 226.204C906.435 225.996 906.45 225.779 906.526 225.58L912.181 210.876C912.275 210.631 912.275 210.359 912.181 210.114L906.528 195.408C906.452 195.21 906.437 194.993 906.486 194.786C906.534 194.579 906.644 194.391 906.8 194.247C906.956 194.103 907.152 194.008 907.363 193.977C907.573 193.945 907.788 193.977 907.98 194.069L940.105 209.538Z" stroke="white" stroke-width="3.39973" stroke-linecap="round" stroke-linejoin="round"/>
</g>
<defs>
<filter id="filter0_d_113_873" x="0.931274" y="0.434372" width="1133.22" height="420.55" filterUnits="userSpaceOnUse" color-interpolation-filters="sRGB">
<feFlood flood-opacity="0" result="BackgroundImageFix"/>
<feColorMatrix in="SourceAlpha" type="matrix" values="0 0 0 0 0 0 0 0 0 0 0 0 0 0 0 0 0 0 127 0" result="hardAlpha"/>
<feMorphology radius="16" operator="dilate" in="SourceAlpha" result="effect1_dropShadow_113_873"/>
<feOffset/>
<feGaussianBlur stdDeviation="68.15"/>
<feComposite in2="hardAlpha" operator="out"/>
<feColorMatrix type="matrix" values="0 0 0 0 0.92549 0 0 0 0 0.513726 0 0 0 0 0.733333 0 0 0 0.6 0"/>
<feBlend mode="normal" in2="BackgroundImageFix" result="effect1_dropShadow_113_873"/>
<feBlend mode="normal" in="SourceGraphic" in2="effect1_dropShadow_113_873" result="shape"/>
</filter>
<filter id="filter1_d_113_873" x="33.6766" y="39.6293" width="1065.56" height="341.728" filterUnits="userSpaceOnUse" color-interpolation-filters="sRGB">
<feFlood flood-opacity="0" result="BackgroundImageFix"/>
<feColorMatrix in="SourceAlpha" type="matrix" values="0 0 0 0 0 0 0 0 0 0 0 0 0 0 0 0 0 0 127 0" result="hardAlpha"/>
<feMorphology radius="16.1416" operator="dilate" in="SourceAlpha" result="effect1_dropShadow_113_873"/>
<feOffset/>
<feGaussianBlur stdDeviation="48.9796"/>
<feComposite in2="hardAlpha" operator="out"/>
<feColorMatrix type="matrix" values="0 0 0 0 0.243137 0 0 0 0 0.141176 0 0 0 0 0.529412 0 0 0 1 0"/>
<feBlend mode="normal" in2="BackgroundImageFix" result="effect1_dropShadow_113_873"/>
<feBlend mode="normal" in="SourceGraphic" in2="effect1_dropShadow_113_873" result="shape"/>
</filter>
<linearGradient id="paint0_linear_113_873" x1="215.275" y1="163.205" x2="762.965" y2="218.542" gradientUnits="userSpaceOnUse">
<stop stop-color="#EC83BB"/>
<stop offset="1" stop-color="#B664DB"/>
</linearGradient>
</defs>
</svg>
