<svg width="1070" height="343" viewBox="0 0 1070 343" fill="none" xmlns="http://www.w3.org/2000/svg">
<g filter="url(#filter0_d_113_431)">
<rect x="115" y="114.996" width="840" height="113.575" rx="29.2566" fill="#1C1F28" shape-rendering="crispEdges"/>
<rect x="117.018" y="117.014" width="835.965" height="109.539" rx="27.2389" stroke="url(#paint0_linear_113_431)" stroke-width="4.0354" shape-rendering="crispEdges"/>
<path d="M188.232 150.262C187.881 150.146 187.881 149.65 188.232 149.534L190.29 148.848C190.742 148.698 191.153 148.444 191.49 148.106C191.828 147.769 192.081 147.358 192.232 146.905L192.917 144.849C193.034 144.498 193.529 144.498 193.646 144.849L194.331 146.907C194.482 147.359 194.736 147.77 195.074 148.107C195.411 148.444 195.822 148.698 196.275 148.848L198.331 149.534C198.408 149.559 198.475 149.608 198.522 149.673C198.57 149.738 198.595 149.817 198.595 149.898C198.595 149.979 198.57 150.058 198.522 150.123C198.475 150.188 198.408 150.237 198.331 150.262L196.273 150.948C195.821 151.098 195.41 151.352 195.073 151.689C194.736 152.026 194.482 152.437 194.331 152.889L193.646 154.947C193.621 155.024 193.572 155.091 193.507 155.138C193.441 155.186 193.363 155.211 193.282 155.211C193.201 155.211 193.122 155.186 193.057 155.138C192.991 155.091 192.943 155.024 192.917 154.947L192.232 152.889C192.081 152.437 191.827 152.026 191.49 151.689C191.153 151.352 190.742 151.098 190.29 150.948L188.232 150.262ZM182.815 154.366C182.769 154.351 182.729 154.321 182.7 154.282C182.672 154.243 182.657 154.196 182.657 154.147C182.657 154.099 182.672 154.052 182.7 154.012C182.729 153.973 182.769 153.944 182.815 153.928L184.049 153.517C184.6 153.333 185.031 152.902 185.215 152.352L185.626 151.118C185.641 151.072 185.67 151.031 185.71 151.003C185.749 150.975 185.796 150.959 185.845 150.959C185.893 150.959 185.94 150.975 185.98 151.003C186.019 151.031 186.048 151.072 186.064 151.118L186.475 152.352C186.565 152.623 186.718 152.87 186.92 153.072C187.122 153.274 187.369 153.427 187.64 153.517L188.875 153.928C188.921 153.944 188.961 153.973 188.989 154.012C189.018 154.052 189.033 154.099 189.033 154.147C189.033 154.196 189.018 154.243 188.989 154.282C188.961 154.321 188.921 154.351 188.875 154.366L187.64 154.777C187.369 154.868 187.122 155.02 186.92 155.222C186.718 155.425 186.565 155.671 186.475 155.943L186.064 157.177C186.048 157.223 186.019 157.263 185.98 157.291C185.94 157.32 185.893 157.335 185.845 157.335C185.796 157.335 185.749 157.32 185.71 157.291C185.67 157.263 185.641 157.223 185.626 157.177L185.215 155.943C185.124 155.671 184.972 155.425 184.77 155.222C184.567 155.02 184.321 154.868 184.049 154.777L182.815 154.366ZM181.7 146.857C181.67 146.846 181.644 146.826 181.625 146.8C181.607 146.774 181.597 146.743 181.597 146.711C181.597 146.679 181.607 146.648 181.625 146.622C181.644 146.596 181.67 146.576 181.7 146.566L182.523 146.291C182.89 146.169 183.178 145.881 183.3 145.514L183.574 144.692C183.585 144.661 183.605 144.635 183.631 144.617C183.657 144.598 183.688 144.588 183.72 144.588C183.752 144.588 183.783 144.598 183.809 144.617C183.835 144.635 183.855 144.661 183.865 144.692L184.14 145.514C184.2 145.695 184.302 145.86 184.437 145.995C184.572 146.13 184.736 146.231 184.917 146.291L185.74 146.566C185.77 146.576 185.796 146.596 185.815 146.622C185.833 146.648 185.843 146.679 185.843 146.711C185.843 146.743 185.833 146.774 185.815 146.8C185.796 146.826 185.77 146.846 185.74 146.857L184.917 147.131C184.736 147.191 184.572 147.293 184.437 147.428C184.302 147.563 184.2 147.727 184.14 147.908L183.865 148.729C183.855 148.76 183.835 148.786 183.809 148.805C183.783 148.823 183.752 148.833 183.72 148.833C183.688 148.833 183.657 148.823 183.631 148.805C183.605 148.786 183.585 148.76 183.574 148.729L183.3 147.907C183.178 147.54 182.89 147.252 182.523 147.13L181.7 146.857Z" fill="white"/>
<path d="M191.877 193.778L180.51 182.024C183.247 178.257 184.724 173.672 184.719 168.961C184.719 156.927 175.249 147.136 163.609 147.136C151.97 147.136 142.5 156.927 142.5 168.961C142.5 180.995 151.97 190.786 163.609 190.786C168.166 190.791 172.601 189.263 176.245 186.434L187.613 198.187C188.188 198.719 188.939 199.003 189.71 198.98C190.482 198.958 191.216 198.631 191.761 198.067C192.307 197.503 192.623 196.744 192.645 195.946C192.666 195.148 192.392 194.373 191.877 193.778ZM148.531 168.961C148.531 165.878 149.416 162.863 151.072 160.3C152.729 157.736 155.084 155.738 157.839 154.558C160.594 153.378 163.626 153.07 166.551 153.671C169.476 154.273 172.163 155.757 174.271 157.937C176.38 160.118 177.816 162.895 178.398 165.919C178.98 168.944 178.681 172.078 177.54 174.927C176.399 177.775 174.466 180.21 171.986 181.923C169.507 183.636 166.592 184.55 163.609 184.55C159.612 184.545 155.78 182.901 152.953 179.979C150.126 177.056 148.536 173.094 148.531 168.961Z" fill="white"/>
<rect x="856.88" y="136.979" width="70.6195" height="69.6106" rx="10.0885" fill="#272B34"/>
<path d="M890.013 171.786L881.579 171.786M908.647 170.828C908.827 170.916 908.978 171.052 909.084 171.221C909.189 171.39 909.245 171.586 909.245 171.785C909.245 171.985 909.189 172.18 909.083 172.349C908.977 172.518 908.825 172.654 908.646 172.741L876.522 188.212C876.33 188.304 876.114 188.337 875.904 188.305C875.693 188.274 875.496 188.179 875.34 188.035C875.183 187.89 875.073 187.702 875.025 187.494C874.977 187.287 874.992 187.07 875.068 186.871L880.723 172.166C880.818 171.921 880.818 171.65 880.723 171.405L875.07 156.699C874.994 156.5 874.979 156.283 875.028 156.076C875.076 155.869 875.186 155.681 875.342 155.537C875.498 155.393 875.694 155.299 875.905 155.267C876.115 155.236 876.33 155.268 876.522 155.359L908.647 170.828Z" stroke="white" stroke-width="3.39973" stroke-linecap="round" stroke-linejoin="round"/>
</g>
<defs>
<filter id="filter0_d_113_431" x="0.899109" y="0.895447" width="1068.2" height="341.776" filterUnits="userSpaceOnUse" color-interpolation-filters="sRGB">
<feFlood flood-opacity="0" result="BackgroundImageFix"/>
<feColorMatrix in="SourceAlpha" type="matrix" values="0 0 0 0 0 0 0 0 0 0 0 0 0 0 0 0 0 0 127 0" result="hardAlpha"/>
<feMorphology radius="16.1416" operator="dilate" in="SourceAlpha" result="effect1_dropShadow_113_431"/>
<feOffset/>
<feGaussianBlur stdDeviation="48.9796"/>
<feComposite in2="hardAlpha" operator="out"/>
<feColorMatrix type="matrix" values="0 0 0 0 0.243137 0 0 0 0 0.141176 0 0 0 0 0.529412 0 0 0 1 0"/>
<feBlend mode="normal" in2="BackgroundImageFix" result="effect1_dropShadow_113_431"/>
<feBlend mode="normal" in="SourceGraphic" in2="effect1_dropShadow_113_431" result="shape"/>
</filter>
<linearGradient id="paint0_linear_113_431" x1="182.71" y1="124.475" x2="732.097" y2="180.135" gradientUnits="userSpaceOnUse">
<stop stop-color="#EC83BB"/>
<stop offset="1" stop-color="#B664DB"/>
</linearGradient>
</defs>
</svg>
