<svg width="30" height="36" viewBox="0 0 30 36" fill="none" xmlns="http://www.w3.org/2000/svg">
<path d="M14.4644 21.0626C14.4195 21.8122 13.4505 22.0726 13.0378 21.4459L10.6171 17.7668C10.0846 16.9582 9.37156 16.285 8.53455 15.8007C7.69755 15.3164 6.75957 15.0342 5.79496 14.9766L1.40957 14.7132C0.662028 14.6681 0.402341 13.6963 1.02728 13.2826L4.69588 10.8552C5.50223 10.3212 6.17346 9.60626 6.65636 8.76692C7.13927 7.92759 7.42058 6.98698 7.478 6.01965L7.74042 1.62191C7.74947 1.45797 7.80992 1.30108 7.91314 1.17363C8.01637 1.04618 8.1571 0.954682 8.31525 0.912189C8.47341 0.869696 8.64091 0.878381 8.79386 0.937001C8.94681 0.995621 9.07739 1.10119 9.16697 1.23863L11.5877 4.9177C12.1199 5.72619 12.8326 6.39928 13.6692 6.88369C14.5058 7.36809 15.4434 7.65048 16.4077 7.7085L20.7952 7.97134C20.9587 7.98043 21.1151 8.04105 21.2422 8.14458C21.3693 8.2481 21.4606 8.38923 21.503 8.54784C21.5454 8.70644 21.5367 8.87441 21.4783 9.02779C21.4198 9.18116 21.3146 9.31211 21.1775 9.40194L17.5089 11.8293C16.7027 12.363 16.0316 13.0776 15.5486 13.9166C15.0656 14.7555 14.784 15.6957 14.7262 16.6628L14.4644 21.0626ZM25.3391 29.5378C25.3334 29.6361 25.2969 29.7301 25.2349 29.8065C25.1729 29.8829 25.0885 29.9377 24.9936 29.9632C24.8987 29.9886 24.7983 29.9835 24.7065 29.9485C24.6147 29.9134 24.5363 29.8503 24.4823 29.768L23.03 27.5609C22.3816 26.5774 21.311 25.9575 20.1374 25.8862L17.5054 25.7283C17.4073 25.7226 17.3136 25.6861 17.2374 25.6239C17.1612 25.5617 17.1066 25.477 17.0812 25.3819C17.0557 25.2867 17.0609 25.186 17.0958 25.094C17.1307 25.0019 17.1937 24.9233 17.2758 24.8692L19.4765 23.4129C19.9603 23.0926 20.3631 22.6638 20.653 22.1603C20.9428 21.6568 21.1118 21.0926 21.1464 20.5122L21.3036 17.8728C21.3093 17.7744 21.3458 17.6804 21.4078 17.6041C21.4698 17.5277 21.5542 17.4729 21.6491 17.4474C21.744 17.4219 21.8444 17.427 21.9362 17.4621C22.028 17.4971 22.1065 17.5603 22.1604 17.6426L23.6127 19.8496C23.9321 20.3348 24.3598 20.7388 24.8618 21.0295C25.3639 21.3202 25.9266 21.4896 26.5053 21.5244L29.1374 21.6822C29.2354 21.6879 29.3292 21.7245 29.4053 21.7867C29.4815 21.8488 29.5361 21.9335 29.5616 22.0287C29.587 22.1238 29.5819 22.2245 29.5469 22.3166C29.512 22.4086 29.449 22.4873 29.3669 22.5414L27.1662 23.9977C26.6824 24.3179 26.2796 24.7468 25.9897 25.2502C25.6999 25.7537 25.5309 26.318 25.4963 26.8983L25.3391 29.5378ZM11.2235 35.675C11.2188 35.7399 11.1941 35.8017 11.1528 35.8519C11.1115 35.902 11.0556 35.938 10.9929 35.9549C10.9303 35.9717 10.8639 35.9686 10.8031 35.9458C10.7423 35.9231 10.6901 35.882 10.6537 35.8281L9.68587 34.3581C9.25391 33.7008 8.53935 33.2871 7.75575 33.2406L6.00242 33.135C5.93771 33.1303 5.87605 33.1055 5.82603 33.0641C5.77601 33.0227 5.74011 32.9666 5.72332 32.9038C5.70652 32.8409 5.70967 32.7744 5.73233 32.7134C5.75498 32.6525 5.79602 32.6001 5.84973 32.5636L7.3155 31.5931C7.63848 31.3795 7.90735 31.0934 8.10077 30.7574C8.2942 30.4215 8.40685 30.0449 8.42979 29.6576L8.53498 27.8993C8.53964 27.8344 8.56435 27.7726 8.60567 27.7225C8.64699 27.6723 8.70287 27.6363 8.76554 27.6195C8.82821 27.6026 8.89456 27.6058 8.95535 27.6285C9.01615 27.6512 9.06838 27.6924 9.10477 27.7462L10.0726 29.2162C10.2856 29.5401 10.5709 29.8097 10.906 30.0037C11.241 30.1977 11.6166 30.3107 12.0027 30.3337L13.754 30.4399C13.8187 30.4446 13.8804 30.4693 13.9304 30.5108C13.9804 30.5522 14.0163 30.6083 14.0331 30.6711C14.0499 30.734 14.0467 30.8005 14.0241 30.8615C14.0014 30.9224 13.9604 30.9748 13.9067 31.0113L12.4409 31.9818C11.7855 32.4149 11.3729 33.1315 11.3266 33.9173L11.2235 35.675Z" fill="#E55AC5"/>
</svg>
