<svg width="32" height="33" viewBox="0 0 32 33" fill="none" xmlns="http://www.w3.org/2000/svg">
<path d="M23.2132 26.157H8.85847C6.86476 26.157 6.06727 25.304 6.06727 23.1849V21.7988C6.06727 19.6797 6.86476 18.8268 8.85847 18.8268H23.2132C25.2069 18.8268 26.0044 19.6797 26.0044 21.7988V23.1849C26.0044 25.304 25.2069 26.157 23.2132 26.157Z" stroke="#FEDC5A" stroke-width="2" stroke-linecap="round" stroke-linejoin="round"/>
<path d="M20.5549 14.8285H11.5168C9.52305 14.8285 8.72556 13.9756 8.72556 11.8565V10.4704C8.72556 8.35132 9.52305 7.49835 11.5168 7.49835H20.5549C22.5486 7.49835 23.3461 8.35132 23.3461 10.4704V11.8565C23.3461 13.9756 22.5486 14.8285 20.5549 14.8285Z" stroke="#FEDC5A" stroke-width="2" stroke-linecap="round" stroke-linejoin="round"/>
<path d="M16.0358 29.8221V26.6235" stroke="#FEDC5A" stroke-width="2" stroke-linecap="round" stroke-linejoin="round"/>
<path d="M16.0358 17.8273V15.1617" stroke="#FEDC5A" stroke-width="2" stroke-linecap="round" stroke-linejoin="round"/>
<path d="M16.0358 3.16687V6.752" stroke="#292D32" stroke-width="2" stroke-linecap="round" stroke-linejoin="round"/>
</svg>
