<svg width="33" height="33" viewBox="0 0 33 33" fill="none" xmlns="http://www.w3.org/2000/svg">
<path d="M30.2273 20.4928V12.4962C30.2273 5.83239 27.569 3.16687 20.9233 3.16687H12.9484C6.30273 3.16687 3.64444 5.83239 3.64444 12.4962V20.4928C3.64444 27.1566 6.30273 29.8221 12.9484 29.8221H20.9233C27.569 29.8221 30.2273 27.1566 30.2273 20.4928Z" stroke="#F04037" stroke-width="2" stroke-linecap="round" stroke-linejoin="round"/>
<path d="M4.3356 9.97723H29.5362" stroke="#F04037" stroke-width="2" stroke-linecap="round" stroke-linejoin="round"/>
<path d="M12.3105 3.31342V9.79064" stroke="#F04037" stroke-width="2" stroke-linecap="round" stroke-linejoin="round"/>
<path d="M21.5612 3.31342V9.1909" stroke="#F04037" stroke-width="2" stroke-linecap="round" stroke-linejoin="round"/>
<path d="M13.9453 19.7597V18.1604C13.9453 16.108 15.394 15.2683 17.1618 16.2946L18.5441 17.0942L19.9264 17.8939C21.6942 18.9201 21.6942 20.5994 19.9264 21.6256L18.5441 22.4253L17.1618 23.2249C15.394 24.2511 13.9453 23.4115 13.9453 21.359V19.7597V19.7597Z" stroke="#F04037" stroke-width="2" stroke-miterlimit="10" stroke-linecap="round" stroke-linejoin="round"/>
</svg>
